<svg width="51" height="49" viewBox="0 0 51 49" fill="none" xmlns="http://www.w3.org/2000/svg">
<path d="M25.4368 0C20.4785 0 15.6316 1.43485 11.5089 4.1231C7.38621 6.81136 4.17297 10.6323 2.27551 15.1027C0.378049 19.5731 -0.118412 24.4922 0.848905 29.2379C1.81622 33.9837 4.20387 38.3429 7.70992 41.7644C11.216 45.1859 15.683 47.516 20.546 48.46C25.409 49.404 30.4497 48.9195 35.0306 47.0678C39.6114 45.2161 43.5268 42.0803 46.2815 38.0571C49.0362 34.0338 50.5065 29.3038 50.5065 24.465C50.4992 17.9787 47.8556 11.7601 43.1557 7.17351C38.4558 2.58697 32.0835 0.00712323 25.4368 0ZM25.4368 46.9729C20.8752 46.9729 16.416 45.6528 12.6231 43.1796C8.83026 40.7064 5.87408 37.1912 4.12842 33.0784C2.38275 28.9657 1.92601 24.4401 2.81594 20.074C3.70587 15.7079 5.90251 11.6974 9.12808 8.5496C12.3536 5.40182 16.4633 3.25816 20.9373 2.38969C25.4112 1.52122 30.0487 1.96695 34.2631 3.67051C38.4775 5.37408 42.0796 8.25896 44.6139 11.9604C47.1482 15.6618 48.5009 20.0134 48.5009 24.465C48.4943 30.4325 46.0622 36.1537 41.7383 40.3733C37.4143 44.593 31.5518 46.9664 25.4368 46.9729ZM34.0157 23.6504L21.9822 15.8215C21.8312 15.7232 21.6556 15.6667 21.4742 15.6581C21.2928 15.6496 21.1125 15.6892 20.9524 15.7729C20.7923 15.8565 20.6585 15.981 20.5652 16.133C20.472 16.2851 20.4228 16.459 20.4229 16.6362V32.2939C20.4227 32.4711 20.4718 32.645 20.5649 32.7971C20.6581 32.9492 20.7918 33.0737 20.9519 33.1575C21.112 33.2412 21.2925 33.2808 21.474 33.2722C21.6555 33.2636 21.8311 33.207 21.9822 33.1085L34.0157 25.2797C34.1532 25.1904 34.266 25.0693 34.344 24.9272C34.422 24.785 34.4629 24.6263 34.4629 24.465C34.4629 24.3038 34.422 24.1451 34.344 24.0029C34.266 23.8608 34.1532 23.7397 34.0157 23.6504ZM22.4285 30.4663V18.4638L31.6516 24.465L22.4285 30.4663Z" fill="white"/>
</svg>
