<svg width="588" height="38" viewBox="0 0 588 38" fill="none" xmlns="http://www.w3.org/2000/svg">
<g clip-path="url(#clip0_5346_9481)">
<path fill-rule="evenodd" clip-rule="evenodd" d="M4.96115 16.0156H9.68606C13.7022 16.0156 15.5922 17.0312 15.5922 19.9219C15.5922 23.5156 12.0485 23.9844 9.52856 23.9844H4.96115V16.0156ZM0 28.2031H10.001C15.2772 28.2031 20.4746 26.3281 20.4746 20.3125C20.4746 16.7969 17.9546 14.0625 14.4897 13.6719V13.5938C17.3247 12.7344 19.2934 10.7031 19.2934 7.57812C19.2934 2.57812 14.9622 0.625 10.7885 0.625H0V28.2031ZM4.96115 4.84375H9.05607C12.7572 4.84375 14.411 6.01562 14.411 8.35938C14.411 10.3906 12.7572 11.7969 9.44981 11.7969H4.96115V4.84375ZM23.7033 28.2031H28.4282V0H23.7033V28.2031ZM31.5781 18.8281C31.5781 24.6875 36.1455 28.5937 41.8154 28.5937C47.4853 28.5937 52.0527 24.6875 52.0527 18.8281C52.0527 12.9688 47.4853 9.0625 41.8154 9.0625C36.0668 9.0625 31.5781 12.9688 31.5781 18.8281ZM36.2243 18.8281C36.2243 15.9375 38.2717 13.2031 41.7367 13.2031C45.2016 13.2031 47.2491 15.8594 47.2491 18.8281C47.2491 21.7969 45.2016 24.4531 41.7367 24.4531C38.3505 24.4531 36.2243 21.7969 36.2243 18.8281ZM54.1002 18.8281C54.1002 24.6875 58.6676 28.5937 64.3375 28.5937C70.0073 28.5937 74.5748 24.6875 74.5748 18.8281C74.5748 12.9688 70.0073 9.0625 64.3375 9.0625C58.6676 9.0625 54.1002 12.9688 54.1002 18.8281ZM58.8251 18.8281C58.8251 15.9375 60.8725 13.2031 64.3375 13.2031C67.8024 13.2031 69.8498 15.8594 69.8498 18.8281C69.8498 21.7969 67.8024 24.4531 64.3375 24.4531C60.8725 24.4531 58.8251 21.7969 58.8251 18.8281ZM77.4884 9.53125H81.9771V12.4219H82.0559C82.8433 10.7031 84.6546 9.0625 87.8045 9.0625C90.7182 9.0625 92.6869 10.1562 93.7106 12.5C95.0493 10.1562 97.0968 9.0625 99.9317 9.0625C104.972 9.0625 106.704 12.5781 106.704 17.0312V28.125H101.979V17.5781C101.979 15.2344 101.27 13.2031 98.5143 13.2031C95.6006 13.2031 94.4981 15.625 94.4981 18.0469V28.125H89.7732V17.0312C89.7732 14.7656 88.8282 13.2031 86.5445 13.2031C83.4733 13.2031 82.2134 15.4688 82.2134 17.9688V28.125H77.4884V9.53125ZM110.405 28.2031H114.894V25.3906H114.973C116.311 27.6562 118.831 28.6719 121.43 28.6719C127.257 28.6719 130.722 24.375 130.722 18.9062C130.722 13.3594 127.021 9.14062 121.666 9.14062C118.123 9.14062 116.233 10.7812 115.288 11.9531H115.209V0H110.484L110.405 28.2031ZM125.997 18.8281C125.997 21.7188 123.95 24.4531 120.485 24.4531C117.02 24.4531 114.973 21.7969 114.973 18.8281C114.973 15.9375 117.02 13.2031 120.485 13.2031C123.95 13.2812 125.997 15.9375 125.997 18.8281ZM151.906 20.4688V19.2188C151.906 12.7344 148.362 9.0625 143.086 9.0625C137.416 9.0625 132.849 12.9688 132.849 18.8281C132.849 24.6875 137.416 28.5937 143.086 28.5937C146.078 28.5937 148.835 27.5781 151.039 24.8438L147.653 22.3438C146.472 23.75 144.976 24.8438 142.613 24.8438C140.015 24.8438 137.888 23.2031 137.573 20.3906C137.573 20.4688 151.906 20.4688 151.906 20.4688ZM137.573 16.9531C137.888 14.2969 139.621 12.5 142.456 12.5C145.37 12.5 147.181 14.2188 147.26 16.9531H137.573ZM154.977 9.53125H159.702V12.5H159.781C160.804 10.3906 162.852 9.0625 165.372 9.0625C165.923 9.0625 166.474 9.21875 167.025 9.29688V13.8281C166.238 13.6719 165.529 13.5156 164.742 13.5156C160.332 13.5156 159.702 17.1875 159.702 18.2031V28.2031H154.977V9.53125ZM183.011 9.53125V12.3438H182.933C181.594 10.0781 179.074 9.0625 176.475 9.0625C170.648 9.0625 167.183 13.3594 167.183 18.8281C167.183 24.1406 170.884 28.3594 176.554 28.3594C178.916 28.3594 181.358 27.5 182.696 25.625H182.775V26.9531C182.775 30.625 181.358 33.2031 176.79 33.2031C174.192 33.2031 172.223 32.2656 170.333 30.5469L167.498 34.375C170.175 36.7188 173.325 37.4219 176.79 37.4219C184.114 37.4219 187.421 33.125 187.421 26.4062V9.53125H183.011ZM177.499 13.2812C180.885 13.2812 183.09 15.5469 183.09 18.75C183.09 21.875 180.964 24.2188 177.499 24.2188C174.349 24.2188 171.987 21.7969 171.987 18.8281C171.908 15.4688 174.192 13.2812 177.499 13.2812Z" fill="black"/>
</g>
<path d="M209.152 8.002L207.22 15.366H203.244L206.24 8.002H209.152ZM214.528 8.002L212.596 15.366H208.62L211.616 8.002H214.528ZM223.612 28.75L215.66 9.15H220.056L226.048 24.578L232.18 9.15H236.38L228.316 28.75H223.612ZM242.6 29.03C241.144 29.03 239.828 28.694 238.652 28.022C237.476 27.35 236.543 26.4447 235.852 25.306C235.162 24.1673 234.816 22.8887 234.816 21.47C234.816 20.0513 235.152 18.7727 235.824 17.634C236.515 16.4767 237.448 15.562 238.624 14.89C239.819 14.218 241.144 13.882 242.6 13.882C244.056 13.882 245.372 14.218 246.548 14.89C247.743 15.562 248.676 16.4767 249.348 17.634C250.039 18.7727 250.384 20.0513 250.384 21.47C250.384 22.8887 250.039 24.1673 249.348 25.306C248.676 26.4447 247.752 27.35 246.576 28.022C245.4 28.694 244.075 29.03 242.6 29.03ZM242.6 25.698C243.366 25.698 244.047 25.5113 244.644 25.138C245.26 24.7647 245.746 24.2607 246.1 23.626C246.474 22.9727 246.66 22.254 246.66 21.47C246.66 20.6673 246.474 19.9487 246.1 19.314C245.746 18.6793 245.26 18.1753 244.644 17.802C244.047 17.41 243.366 17.214 242.6 17.214C241.854 17.214 241.172 17.41 240.556 17.802C239.94 18.1753 239.455 18.6793 239.1 19.314C238.746 19.9487 238.568 20.6673 238.568 21.47C238.568 22.254 238.746 22.9727 239.1 23.626C239.455 24.2607 239.94 24.7647 240.556 25.138C241.172 25.5113 241.854 25.698 242.6 25.698ZM258.804 28.974C257.18 28.974 255.948 28.61 255.108 27.882C254.287 27.1353 253.876 26.0527 253.876 24.634V17.354H250.88V14.162H253.876V10.438L257.712 9.57V14.162H261.884V17.354H257.712V23.85C257.712 24.522 257.862 25.0073 258.16 25.306C258.459 25.586 258.982 25.726 259.728 25.726C260.102 25.726 260.438 25.7073 260.736 25.67C261.054 25.614 261.399 25.5207 261.772 25.39V28.554C261.38 28.6847 260.895 28.7873 260.316 28.862C259.738 28.9367 259.234 28.974 258.804 28.974ZM270.451 29.03C268.995 29.03 267.67 28.694 266.475 28.022C265.299 27.35 264.366 26.4447 263.675 25.306C262.985 24.1673 262.639 22.8887 262.639 21.47C262.639 20.0513 262.966 18.7727 263.619 17.634C264.291 16.4953 265.197 15.59 266.335 14.918C267.474 14.246 268.743 13.91 270.143 13.91C271.543 13.91 272.785 14.2553 273.867 14.946C274.95 15.6367 275.799 16.57 276.415 17.746C277.05 18.922 277.367 20.2567 277.367 21.75V22.758H266.559C266.727 23.3367 266.998 23.8593 267.371 24.326C267.763 24.7927 268.239 25.1567 268.799 25.418C269.378 25.6793 269.994 25.81 270.647 25.81C271.301 25.81 271.898 25.7073 272.439 25.502C272.999 25.2967 273.475 25.0073 273.867 24.634L276.387 26.93C275.491 27.658 274.567 28.19 273.615 28.526C272.682 28.862 271.627 29.03 270.451 29.03ZM266.503 20.014H273.587C273.457 19.4353 273.214 18.9313 272.859 18.502C272.523 18.054 272.113 17.7087 271.627 17.466C271.161 17.2047 270.638 17.074 270.059 17.074C269.462 17.074 268.921 17.1953 268.435 17.438C267.969 17.6807 267.567 18.026 267.231 18.474C266.895 18.9033 266.653 19.4167 266.503 20.014ZM286.295 28.946C284.914 28.946 283.663 28.61 282.543 27.938C281.423 27.266 280.527 26.37 279.855 25.25C279.202 24.1113 278.875 22.842 278.875 21.442C278.875 20.042 279.202 18.782 279.855 17.662C280.527 16.5233 281.432 15.6273 282.571 14.974C283.71 14.302 284.988 13.966 286.407 13.966C287.135 13.966 287.835 14.0687 288.507 14.274C289.179 14.4607 289.804 14.7407 290.383 15.114V9.15L294.219 8.506V28.75H290.439V27.546C289.244 28.4793 287.863 28.946 286.295 28.946ZM286.911 25.67C287.62 25.67 288.264 25.5487 288.843 25.306C289.44 25.0633 289.954 24.718 290.383 24.27V18.586C289.954 18.1567 289.44 17.8207 288.843 17.578C288.246 17.3353 287.602 17.214 286.911 17.214C286.108 17.214 285.38 17.4007 284.727 17.774C284.092 18.1287 283.588 18.6327 283.215 19.286C282.842 19.9207 282.655 20.6393 282.655 21.442C282.655 22.2447 282.842 22.9633 283.215 23.598C283.588 24.2327 284.092 24.7367 284.727 25.11C285.38 25.4833 286.108 25.67 286.911 25.67ZM302.563 28.75V9.15H317.711V12.678H306.623V17.298H313.987V20.714H306.623V28.75H302.563ZM324.182 29.03C322.726 29.03 321.41 28.694 320.234 28.022C319.058 27.35 318.125 26.4447 317.434 25.306C316.744 24.1673 316.398 22.8887 316.398 21.47C316.398 20.0513 316.734 18.7727 317.406 17.634C318.097 16.4767 319.03 15.562 320.206 14.89C321.401 14.218 322.726 13.882 324.182 13.882C325.638 13.882 326.954 14.218 328.13 14.89C329.325 15.562 330.258 16.4767 330.93 17.634C331.621 18.7727 331.966 20.0513 331.966 21.47C331.966 22.8887 331.621 24.1673 330.93 25.306C330.258 26.4447 329.334 27.35 328.158 28.022C326.982 28.694 325.657 29.03 324.182 29.03ZM324.182 25.698C324.948 25.698 325.629 25.5113 326.226 25.138C326.842 24.7647 327.328 24.2607 327.682 23.626C328.056 22.9727 328.242 22.254 328.242 21.47C328.242 20.6673 328.056 19.9487 327.682 19.314C327.328 18.6793 326.842 18.1753 326.226 17.802C325.629 17.41 324.948 17.214 324.182 17.214C323.436 17.214 322.754 17.41 322.138 17.802C321.522 18.1753 321.037 18.6793 320.682 19.314C320.328 19.9487 320.15 20.6673 320.15 21.47C320.15 22.254 320.328 22.9727 320.682 23.626C321.037 24.2607 321.522 24.7647 322.138 25.138C322.754 25.5113 323.436 25.698 324.182 25.698ZM334.044 28.75V14.162H337.88V15.786C338.347 15.1513 338.907 14.666 339.56 14.33C340.213 13.994 340.951 13.826 341.772 13.826C342.481 13.8447 343.013 13.9567 343.368 14.162V17.522C343.088 17.3913 342.78 17.298 342.444 17.242C342.108 17.1673 341.763 17.13 341.408 17.13C340.661 17.13 339.98 17.3167 339.364 17.69C338.748 18.0633 338.253 18.5953 337.88 19.286V28.75H334.044ZM350.799 28.75V9.15H354.663L364.407 21.806V9.15H368.215V28.75H364.631L354.635 15.646V28.75H350.799ZM377.567 28.75V21.246L369.559 9.15H374.235L379.723 17.662L385.239 9.15H389.663L381.627 21.274V28.75H377.567ZM398.809 29.03C397.353 29.03 395.99 28.778 394.721 28.274C393.451 27.7513 392.341 27.0327 391.389 26.118C390.455 25.2033 389.718 24.1393 389.177 22.926C388.654 21.694 388.393 20.3687 388.393 18.95C388.393 17.5127 388.654 16.1873 389.177 14.974C389.718 13.742 390.465 12.6687 391.417 11.754C392.369 10.8393 393.47 10.13 394.721 9.626C395.99 9.10333 397.353 8.842 398.809 8.842C399.891 8.842 400.937 8.99133 401.945 9.29C402.953 9.58867 403.886 10.0087 404.745 10.55C405.622 11.0913 406.369 11.7447 406.985 12.51L404.241 15.226C403.531 14.3487 402.71 13.686 401.777 13.238C400.862 12.79 399.873 12.566 398.809 12.566C397.931 12.566 397.11 12.734 396.345 13.07C395.579 13.3873 394.917 13.8353 394.357 14.414C393.797 14.974 393.358 15.646 393.041 16.43C392.723 17.1953 392.565 18.0353 392.565 18.95C392.565 19.846 392.723 20.686 393.041 21.47C393.358 22.2353 393.806 22.9073 394.385 23.486C394.963 24.046 395.635 24.4847 396.401 24.802C397.185 25.1193 398.034 25.278 398.949 25.278C399.975 25.278 400.937 25.0633 401.833 24.634C402.729 24.2047 403.522 23.5887 404.213 22.786L406.873 25.418C406.257 26.1647 405.519 26.8087 404.661 27.35C403.802 27.8913 402.869 28.3113 401.861 28.61C400.871 28.89 399.854 29.03 398.809 29.03ZM414.319 28.75V9.15H423.531C424.857 9.15 426.014 9.374 427.003 9.822C428.011 10.27 428.786 10.9047 429.327 11.726C429.887 12.5287 430.167 13.462 430.167 14.526C430.167 15.3847 429.943 16.178 429.495 16.906C429.066 17.6153 428.478 18.194 427.731 18.642C428.683 19.09 429.439 19.6967 429.999 20.462C430.559 21.2273 430.839 22.0953 430.839 23.066C430.839 24.186 430.55 25.1753 429.971 26.034C429.411 26.8927 428.609 27.5647 427.563 28.05C426.537 28.5167 425.342 28.75 423.979 28.75H414.319ZM418.379 17.158H423.279C424.157 17.158 424.847 16.9527 425.351 16.542C425.874 16.1127 426.135 15.5433 426.135 14.834C426.135 14.1247 425.874 13.5647 425.351 13.154C424.847 12.7247 424.157 12.51 423.279 12.51H418.379V17.158ZM418.379 25.39H423.671C424.605 25.39 425.351 25.166 425.911 24.718C426.471 24.2513 426.751 23.6353 426.751 22.87C426.751 22.086 426.471 21.47 425.911 21.022C425.351 20.5553 424.605 20.322 423.671 20.322H418.379V25.39ZM440.013 29.03C438.557 29.03 437.232 28.694 436.037 28.022C434.861 27.35 433.928 26.4447 433.237 25.306C432.547 24.1673 432.201 22.8887 432.201 21.47C432.201 20.0513 432.528 18.7727 433.181 17.634C433.853 16.4953 434.759 15.59 435.897 14.918C437.036 14.246 438.305 13.91 439.705 13.91C441.105 13.91 442.347 14.2553 443.429 14.946C444.512 15.6367 445.361 16.57 445.977 17.746C446.612 18.922 446.929 20.2567 446.929 21.75V22.758H436.121C436.289 23.3367 436.56 23.8593 436.933 24.326C437.325 24.7927 437.801 25.1567 438.361 25.418C438.94 25.6793 439.556 25.81 440.209 25.81C440.863 25.81 441.46 25.7073 442.001 25.502C442.561 25.2967 443.037 25.0073 443.429 24.634L445.949 26.93C445.053 27.658 444.129 28.19 443.177 28.526C442.244 28.862 441.189 29.03 440.013 29.03ZM436.065 20.014H443.149C443.019 19.4353 442.776 18.9313 442.421 18.502C442.085 18.054 441.675 17.7087 441.189 17.466C440.723 17.2047 440.2 17.074 439.621 17.074C439.024 17.074 438.483 17.1953 437.997 17.438C437.531 17.6807 437.129 18.026 436.793 18.474C436.457 18.9033 436.215 19.4167 436.065 20.014ZM454.596 29.03C453.252 29.03 452.011 28.862 450.872 28.526C449.733 28.1713 448.744 27.6673 447.904 27.014L449.808 24.466C450.648 25.026 451.451 25.446 452.216 25.726C453 26.006 453.775 26.146 454.54 26.146C455.399 26.146 456.08 26.006 456.584 25.726C457.107 25.4273 457.368 25.0447 457.368 24.578C457.368 24.2047 457.219 23.906 456.92 23.682C456.64 23.458 456.183 23.2993 455.548 23.206L452.748 22.786C451.292 22.562 450.191 22.0953 449.444 21.386C448.697 20.658 448.324 19.706 448.324 18.53C448.324 17.578 448.567 16.766 449.052 16.094C449.556 15.4033 450.256 14.8713 451.152 14.498C452.067 14.106 453.149 13.91 454.4 13.91C455.464 13.91 456.5 14.0593 457.508 14.358C458.535 14.6567 459.496 15.114 460.392 15.73L458.544 18.222C457.741 17.718 456.976 17.354 456.248 17.13C455.52 16.906 454.783 16.794 454.036 16.794C453.345 16.794 452.785 16.9247 452.356 17.186C451.945 17.4473 451.74 17.7927 451.74 18.222C451.74 18.614 451.889 18.922 452.188 19.146C452.487 19.37 453 19.5287 453.728 19.622L456.528 20.042C457.965 20.2473 459.067 20.714 459.832 21.442C460.597 22.1513 460.98 23.0753 460.98 24.214C460.98 25.1473 460.7 25.978 460.14 26.706C459.58 27.4153 458.824 27.9847 457.872 28.414C456.92 28.8247 455.828 29.03 454.596 29.03ZM469.253 28.974C467.629 28.974 466.397 28.61 465.557 27.882C464.735 27.1353 464.325 26.0527 464.325 24.634V17.354H461.329V14.162H464.325V10.438L468.161 9.57V14.162H472.333V17.354H468.161V23.85C468.161 24.522 468.31 25.0073 468.609 25.306C468.907 25.586 469.43 25.726 470.177 25.726C470.55 25.726 470.886 25.7073 471.185 25.67C471.502 25.614 471.847 25.5207 472.221 25.39V28.554C471.829 28.6847 471.343 28.7873 470.765 28.862C470.186 28.9367 469.682 28.974 469.253 28.974ZM479.529 28.75V9.15H484.737L490.113 19.706L495.489 9.15H500.697V28.75H496.861V14.33L490.057 27.35L483.281 14.274V28.75H479.529ZM510.8 29.03C509.344 29.03 508.028 28.694 506.852 28.022C505.676 27.35 504.743 26.4447 504.052 25.306C503.361 24.1673 503.016 22.8887 503.016 21.47C503.016 20.0513 503.352 18.7727 504.024 17.634C504.715 16.4767 505.648 15.562 506.824 14.89C508.019 14.218 509.344 13.882 510.8 13.882C512.256 13.882 513.572 14.218 514.748 14.89C515.943 15.562 516.876 16.4767 517.548 17.634C518.239 18.7727 518.584 20.0513 518.584 21.47C518.584 22.8887 518.239 24.1673 517.548 25.306C516.876 26.4447 515.952 27.35 514.776 28.022C513.6 28.694 512.275 29.03 510.8 29.03ZM510.8 25.698C511.565 25.698 512.247 25.5113 512.844 25.138C513.46 24.7647 513.945 24.2607 514.3 23.626C514.673 22.9727 514.86 22.254 514.86 21.47C514.86 20.6673 514.673 19.9487 514.3 19.314C513.945 18.6793 513.46 18.1753 512.844 17.802C512.247 17.41 511.565 17.214 510.8 17.214C510.053 17.214 509.372 17.41 508.756 17.802C508.14 18.1753 507.655 18.6793 507.3 19.314C506.945 19.9487 506.768 20.6673 506.768 21.47C506.768 22.254 506.945 22.9727 507.3 23.626C507.655 24.2607 508.14 24.7647 508.756 25.138C509.372 25.5113 510.053 25.698 510.8 25.698ZM524.984 28.75L518.74 14.162H522.912L526.916 23.878L530.892 14.162H534.98L528.708 28.75H524.984ZM542.944 29.03C541.488 29.03 540.162 28.694 538.968 28.022C537.792 27.35 536.858 26.4447 536.168 25.306C535.477 24.1673 535.132 22.8887 535.132 21.47C535.132 20.0513 535.458 18.7727 536.112 17.634C536.784 16.4953 537.689 15.59 538.828 14.918C539.966 14.246 541.236 13.91 542.636 13.91C544.036 13.91 545.277 14.2553 546.36 14.946C547.442 15.6367 548.292 16.57 548.908 17.746C549.542 18.922 549.86 20.2567 549.86 21.75V22.758H539.052C539.22 23.3367 539.49 23.8593 539.864 24.326C540.256 24.7927 540.732 25.1567 541.292 25.418C541.87 25.6793 542.486 25.81 543.14 25.81C543.793 25.81 544.39 25.7073 544.932 25.502C545.492 25.2967 545.968 25.0073 546.36 24.634L548.88 26.93C547.984 27.658 547.06 28.19 546.108 28.526C545.174 28.862 544.12 29.03 542.944 29.03ZM538.996 20.014H546.08C545.949 19.4353 545.706 18.9313 545.352 18.502C545.016 18.054 544.605 17.7087 544.12 17.466C543.653 17.2047 543.13 17.074 542.552 17.074C541.954 17.074 541.413 17.1953 540.928 17.438C540.461 17.6807 540.06 18.026 539.724 18.474C539.388 18.9033 539.145 19.4167 538.996 20.014ZM551.93 28.75V14.162H555.766V15.786C556.233 15.1513 556.793 14.666 557.446 14.33C558.099 13.994 558.837 13.826 559.658 13.826C560.367 13.8447 560.899 13.9567 561.254 14.162V17.522C560.974 17.3913 560.666 17.298 560.33 17.242C559.994 17.1673 559.649 17.13 559.294 17.13C558.547 17.13 557.866 17.3167 557.25 17.69C556.634 18.0633 556.139 18.5953 555.766 19.286V28.75H551.93ZM568.704 29.03C567.36 29.03 566.118 28.862 564.98 28.526C563.841 28.1713 562.852 27.6673 562.012 27.014L563.916 24.466C564.756 25.026 565.558 25.446 566.324 25.726C567.108 26.006 567.882 26.146 568.648 26.146C569.506 26.146 570.188 26.006 570.692 25.726C571.214 25.4273 571.476 25.0447 571.476 24.578C571.476 24.2047 571.326 23.906 571.028 23.682C570.748 23.458 570.29 23.2993 569.656 23.206L566.856 22.786C565.4 22.562 564.298 22.0953 563.552 21.386C562.805 20.658 562.432 19.706 562.432 18.53C562.432 17.578 562.674 16.766 563.16 16.094C563.664 15.4033 564.364 14.8713 565.26 14.498C566.174 14.106 567.257 13.91 568.508 13.91C569.572 13.91 570.608 14.0593 571.616 14.358C572.642 14.6567 573.604 15.114 574.5 15.73L572.652 18.222C571.849 17.718 571.084 17.354 570.356 17.13C569.628 16.906 568.89 16.794 568.144 16.794C567.453 16.794 566.893 16.9247 566.464 17.186C566.053 17.4473 565.848 17.7927 565.848 18.222C565.848 18.614 565.997 18.922 566.296 19.146C566.594 19.37 567.108 19.5287 567.836 19.622L570.636 20.042C572.073 20.2473 573.174 20.714 573.94 21.442C574.705 22.1513 575.088 23.0753 575.088 24.214C575.088 25.1473 574.808 25.978 574.248 26.706C573.688 27.4153 572.932 27.9847 571.98 28.414C571.028 28.8247 569.936 29.03 568.704 29.03ZM580.949 15.366L582.881 8.002H586.857L583.861 15.366H580.949ZM575.573 15.366L577.505 8.002H581.481L578.485 15.366H575.573Z" fill="#2D1D38"/>
<defs>
<clipPath id="clip0_5346_9481">
<rect width="187.5" height="37.5" fill="white"/>
</clipPath>
</defs>
</svg>
