<svg width="498" height="39" viewBox="0 0 498 39" fill="none" xmlns="http://www.w3.org/2000/svg">
<g clip-path="url(#clip0_5346_9465)">
<path d="M37.9756 19.0273C37.9756 29.5359 29.4732 38.0547 18.9828 38.0547C8.49457 38.0547 -0.0078125 29.5359 -0.0078125 19.0273C-0.0078125 8.51882 8.49457 0 18.9828 0C29.4732 0 37.9756 8.51882 37.9756 19.0273Z" fill="#00ABE6"/>
<path d="M55.7161 27.1901C52.7267 27.1901 51.0584 25.3573 51.0584 22.1246V5.71484H43.6484V22.0822C43.6484 29.2689 48.0267 33.3756 55.7161 33.3756C63.4055 33.3756 67.7837 29.2689 67.7837 22.0822V5.71484H60.3738V22.1246C60.3738 25.3573 58.7055 27.1901 55.7161 27.1901Z" fill="#33261C"/>
<path d="M80.8669 33.3814C87.3622 33.3814 91.6219 29.9111 91.6219 24.7608C91.6219 21.0868 89.4285 18.2529 83.6107 16.6577L81.5782 16.0977C78.6735 15.3001 77.598 14.4262 77.598 13.145C77.598 11.7874 78.7921 11.0322 80.9007 11.0322C83.4582 11.0322 86.202 12.4662 88.1159 14.1038L91.8166 9.43707C88.9119 6.79827 85.008 5.20312 80.8669 5.20312C74.6086 5.20312 70.2304 8.59708 70.2304 13.8238C70.2304 17.8541 72.8556 20.4929 77.7166 21.7656L79.3933 22.2068C83.0179 23.1656 84.2543 23.8868 84.2543 25.3208C84.2543 26.7972 82.9755 27.5523 80.8245 27.5523C77.6403 27.5523 75.0066 26.3984 72.8556 24.4808L69.2734 28.9947C72.2628 31.7863 76.4463 33.3814 80.8669 33.3814Z" fill="#33261C"/>
<path d="M112.768 32.858H120.305L110.38 5.71484H101.776L91.8594 32.858H99.1847L100.904 27.7925H111.058L112.768 32.858ZM102.775 22.2773L106.002 12.7827L109.186 22.2773H102.775Z" fill="#33261C"/>
<path d="M134.608 32.858H142.018V11.7052H150.071V5.71484H126.562V11.7052H134.608V32.858Z" fill="#33261C"/>
<path d="M163.949 33.3814C172.07 33.3814 178.007 27.5947 178.007 19.3304C178.007 11.0747 172.07 5.20312 163.949 5.20312C155.819 5.20312 149.883 11.0747 149.883 19.3304C149.883 27.5947 155.819 33.3814 163.949 33.3814ZM163.949 27.2384C160.087 27.2384 157.411 24.0396 157.411 19.3304C157.411 14.6213 160.087 11.3547 163.949 11.3547C167.811 11.3547 170.478 14.6213 170.478 19.3304C170.478 24.0396 167.811 27.2384 163.949 27.2384Z" fill="#33261C"/>
<path d="M180.586 32.858H191.256C199.267 32.858 204.967 27.2664 204.967 19.2906C204.967 11.3064 199.267 5.71484 191.256 5.71484H180.586V32.858ZM187.877 26.9949V11.5864H191.256C195.16 11.5864 197.557 14.6579 197.557 19.2906C197.557 23.9149 195.16 26.9949 191.256 26.9949H187.877Z" fill="#33261C"/>
<path d="M224.503 32.858H232.04L222.114 5.71484H213.51L203.594 32.858H210.919L212.638 27.7925H222.792L224.503 32.858ZM214.51 22.2773L217.736 12.7827L220.92 22.2773H214.51Z" fill="#33261C"/>
<path d="M244.093 23.0834L253.688 5.71484H245.329L240.35 16.4906L235.328 5.71484H226.961L236.564 23.0834V32.858H244.093V23.0834Z" fill="#33261C"/>
</g>
<path d="M275.392 8.27934L273.46 15.6433H269.484L272.48 8.27934H275.392ZM280.768 8.27934L278.836 15.6433H274.86L277.856 8.27934H280.768ZM291.027 29.3073C289.254 29.3073 287.714 28.9527 286.407 28.2433C285.119 27.534 284.12 26.526 283.411 25.2193C282.702 23.894 282.347 22.3447 282.347 20.5713V9.42734H286.407V20.5713C286.407 21.5793 286.594 22.466 286.967 23.2313C287.359 23.978 287.9 24.5567 288.591 24.9673C289.3 25.3593 290.122 25.5553 291.055 25.5553C291.988 25.5553 292.8 25.3593 293.491 24.9673C294.182 24.5567 294.714 23.978 295.087 23.2313C295.479 22.466 295.675 21.5793 295.675 20.5713V9.42734H299.707V20.5713C299.707 22.326 299.352 23.866 298.643 25.1913C297.934 26.498 296.926 27.5153 295.619 28.2433C294.331 28.9527 292.8 29.3073 291.027 29.3073ZM309.664 29.3073C308.077 29.3073 306.528 29.018 305.016 28.4393C303.504 27.842 302.16 27.002 300.984 25.9193L303.308 23.0073C304.447 23.9967 305.539 24.7247 306.584 25.1913C307.648 25.6393 308.768 25.8633 309.944 25.8633C310.765 25.8633 311.475 25.77 312.072 25.5833C312.669 25.378 313.127 25.0887 313.444 24.7153C313.78 24.342 313.948 23.9033 313.948 23.3993C313.948 22.7273 313.705 22.214 313.22 21.8593C312.735 21.486 311.904 21.1967 310.728 20.9913L306.836 20.3193C305.175 20.0393 303.905 19.4513 303.028 18.5553C302.169 17.6593 301.74 16.502 301.74 15.0833C301.74 13.87 302.048 12.8153 302.664 11.9193C303.299 11.0233 304.185 10.342 305.324 9.87534C306.481 9.39001 307.853 9.14734 309.44 9.14734C310.877 9.14734 312.305 9.39001 313.724 9.87534C315.161 10.3607 316.431 11.0327 317.532 11.8913L315.348 14.9153C313.295 13.3473 311.232 12.5633 309.16 12.5633C308.432 12.5633 307.797 12.6567 307.256 12.8433C306.715 13.03 306.295 13.2913 305.996 13.6273C305.716 13.9447 305.576 14.3273 305.576 14.7753C305.576 15.3727 305.791 15.8393 306.22 16.1753C306.649 16.4927 307.368 16.7353 308.376 16.9033L312.072 17.5193C314.032 17.8367 315.497 18.462 316.468 19.3953C317.439 20.31 317.924 21.5233 317.924 23.0353C317.924 24.3047 317.588 25.4153 316.916 26.3673C316.244 27.3007 315.283 28.0287 314.032 28.5513C312.8 29.0553 311.344 29.3073 309.664 29.3073ZM317.899 29.0273L325.963 9.42734H330.639L338.619 29.0273H334.223L332.235 23.8753H324.143L322.127 29.0273H317.899ZM325.403 20.6273H331.003L328.203 13.4033L325.403 20.6273ZM345.551 29.0273L347.119 23.5953H344.403V20.8513H347.903L348.827 17.6033H345.803V14.8593H349.611L351.151 9.42734H354.623L353.055 14.8593H357.283L358.851 9.42734H362.267L360.727 14.8593H363.443V17.6033H359.943L359.019 20.8513H362.043V23.5953H358.235L356.667 29.0273H353.251L354.819 23.5953H350.563L349.023 29.0273H345.551ZM351.347 20.8513H355.575L356.527 17.6033H352.271L351.347 20.8513ZM375.826 29.0273V24.4353H364.766V21.3553L375.238 9.42734H379.662V21.2153H382.07V24.4353H379.662V29.0273H375.826ZM369.19 21.2153H375.826V13.6833L369.19 21.2153ZM389.687 29.0273V9.42734H394.895L400.271 19.9833L405.647 9.42734H410.855V29.0273H407.019V14.6073L400.215 27.6273L393.439 14.5513V29.0273H389.687ZM420.959 29.3073C419.503 29.3073 418.187 28.9713 417.011 28.2993C415.835 27.6273 414.901 26.722 414.211 25.5833C413.52 24.4447 413.175 23.166 413.175 21.7473C413.175 20.3287 413.511 19.05 414.183 17.9113C414.873 16.754 415.807 15.8393 416.983 15.1673C418.177 14.4953 419.503 14.1593 420.959 14.1593C422.415 14.1593 423.731 14.4953 424.907 15.1673C426.101 15.8393 427.035 16.754 427.707 17.9113C428.397 19.05 428.743 20.3287 428.743 21.7473C428.743 23.166 428.397 24.4447 427.707 25.5833C427.035 26.722 426.111 27.6273 424.935 28.2993C423.759 28.9713 422.433 29.3073 420.959 29.3073ZM420.959 25.9753C421.724 25.9753 422.405 25.7887 423.003 25.4153C423.619 25.042 424.104 24.538 424.459 23.9033C424.832 23.25 425.019 22.5313 425.019 21.7473C425.019 20.9447 424.832 20.226 424.459 19.5913C424.104 18.9567 423.619 18.4527 423.003 18.0793C422.405 17.6873 421.724 17.4913 420.959 17.4913C420.212 17.4913 419.531 17.6873 418.915 18.0793C418.299 18.4527 417.813 18.9567 417.459 19.5913C417.104 20.226 416.927 20.9447 416.927 21.7473C416.927 22.5313 417.104 23.25 417.459 23.9033C417.813 24.538 418.299 25.042 418.915 25.4153C419.531 25.7887 420.212 25.9753 420.959 25.9753ZM435.142 29.0273L428.898 14.4393H433.07L437.074 24.1553L441.05 14.4393H445.138L438.866 29.0273H435.142ZM453.102 29.3073C451.646 29.3073 450.321 28.9713 449.126 28.2993C447.95 27.6273 447.017 26.722 446.326 25.5833C445.636 24.4447 445.29 23.166 445.29 21.7473C445.29 20.3287 445.617 19.05 446.27 17.9113C446.942 16.7727 447.848 15.8673 448.986 15.1953C450.125 14.5233 451.394 14.1873 452.794 14.1873C454.194 14.1873 455.436 14.5327 456.518 15.2233C457.601 15.914 458.45 16.8473 459.066 18.0233C459.701 19.1993 460.018 20.534 460.018 22.0273V23.0353H449.21C449.378 23.614 449.649 24.1367 450.022 24.6033C450.414 25.07 450.89 25.434 451.45 25.6953C452.029 25.9567 452.645 26.0873 453.298 26.0873C453.952 26.0873 454.549 25.9847 455.09 25.7793C455.65 25.574 456.126 25.2847 456.518 24.9113L459.038 27.2073C458.142 27.9353 457.218 28.4673 456.266 28.8033C455.333 29.1393 454.278 29.3073 453.102 29.3073ZM449.154 20.2913H456.238C456.108 19.7127 455.865 19.2087 455.51 18.7793C455.174 18.3313 454.764 17.986 454.278 17.7433C453.812 17.482 453.289 17.3513 452.71 17.3513C452.113 17.3513 451.572 17.4727 451.086 17.7153C450.62 17.958 450.218 18.3033 449.882 18.7513C449.546 19.1807 449.304 19.694 449.154 20.2913ZM462.089 29.0273V14.4393H465.925V16.0633C466.391 15.4287 466.951 14.9433 467.605 14.6073C468.258 14.2713 468.995 14.1033 469.817 14.1033C470.526 14.122 471.058 14.234 471.413 14.4393V17.7993C471.133 17.6687 470.825 17.5753 470.489 17.5193C470.153 17.4447 469.807 17.4073 469.453 17.4073C468.706 17.4073 468.025 17.594 467.409 17.9673C466.793 18.3407 466.298 18.8727 465.925 19.5633V29.0273H462.089ZM478.862 29.3073C477.518 29.3073 476.277 29.1393 475.138 28.8033C474 28.4487 473.01 27.9447 472.17 27.2913L474.074 24.7433C474.914 25.3033 475.717 25.7233 476.482 26.0033C477.266 26.2833 478.041 26.4233 478.806 26.4233C479.665 26.4233 480.346 26.2833 480.85 26.0033C481.373 25.7047 481.634 25.322 481.634 24.8553C481.634 24.482 481.485 24.1833 481.186 23.9593C480.906 23.7353 480.449 23.5767 479.814 23.4833L477.014 23.0633C475.558 22.8393 474.457 22.3727 473.71 21.6633C472.964 20.9353 472.59 19.9833 472.59 18.8073C472.59 17.8553 472.833 17.0433 473.318 16.3713C473.822 15.6807 474.522 15.1487 475.418 14.7753C476.333 14.3833 477.416 14.1873 478.666 14.1873C479.73 14.1873 480.766 14.3367 481.774 14.6353C482.801 14.934 483.762 15.3913 484.658 16.0073L482.81 18.4993C482.008 17.9953 481.242 17.6313 480.514 17.4073C479.786 17.1833 479.049 17.0713 478.302 17.0713C477.612 17.0713 477.052 17.202 476.622 17.4633C476.212 17.7247 476.006 18.07 476.006 18.4993C476.006 18.8913 476.156 19.1993 476.454 19.4233C476.753 19.6473 477.266 19.806 477.994 19.8993L480.794 20.3193C482.232 20.5247 483.333 20.9913 484.098 21.7193C484.864 22.4287 485.246 23.3527 485.246 24.4913C485.246 25.4247 484.966 26.2553 484.406 26.9833C483.846 27.6927 483.09 28.262 482.138 28.6913C481.186 29.102 480.094 29.3073 478.862 29.3073ZM491.108 15.6433L493.04 8.27934H497.016L494.02 15.6433H491.108ZM485.732 15.6433L487.664 8.27934H491.64L488.644 15.6433H485.732Z" fill="#2D1D38"/>
<defs>
<clipPath id="clip0_5346_9465">
<rect width="253.698" height="38.0547" fill="white"/>
</clipPath>
</defs>
</svg>
