<svg width="551" height="39" viewBox="0 0 551 39" fill="none" xmlns="http://www.w3.org/2000/svg">
<g clip-path="url(#clip0_5346_9477)">
<path d="M85.732 13.1921C85.732 8.81583 85.8077 4.74139 86.0349 0.96875L74.4499 3.15688V4.21322L75.5856 4.36412C76.4186 4.43957 76.9486 4.74139 77.2515 5.1941C77.5543 5.72227 77.7815 6.4768 77.9329 7.60859C78.0844 9.79672 78.2358 14.7766 78.1601 22.6237C78.1601 30.3953 78.0844 35.2997 77.9329 37.1861C82.0975 38.0915 85.3534 38.4688 87.7765 38.4688C92.3196 38.4688 95.8784 37.1861 98.4529 34.5452C101.027 31.9798 102.39 28.3581 102.39 23.9064C102.39 20.3601 101.406 17.4174 99.4372 15.0784C97.4685 12.7394 94.9698 11.6076 92.0167 11.6076C90.048 11.6076 88.0036 12.1358 85.732 13.1921ZM85.9592 36.4315C85.8077 34.017 85.6563 26.7736 85.6563 14.9275C86.3378 14.7011 87.2464 14.5502 88.3822 14.5502C90.1995 14.5502 91.6381 15.4557 92.6982 17.342C93.7583 19.2283 94.2883 21.4919 94.2883 24.3591C94.2883 27.9054 93.6826 30.7726 92.471 33.1871C91.2595 35.5261 89.7452 36.7333 87.8522 36.7333C87.2464 36.5824 86.6407 36.507 85.9592 36.4315ZM30.987 1.72328H0.699219V3.23233L2.28932 3.38324C3.50083 3.6096 4.33375 4.06231 4.86378 4.74139C5.39382 5.49591 5.69669 6.70316 5.77241 8.36312C6.37817 16.512 6.37817 24.1327 5.77241 31.1498C5.62098 32.8098 5.3181 34.017 4.86378 34.7716C4.33375 35.5261 3.50083 35.9788 2.28932 36.1297L0.699219 36.3561V37.8651H20.2348V36.3561L18.1904 36.2052C16.9789 36.0543 16.146 35.5261 15.6159 34.847C15.0859 34.0925 14.783 32.8852 14.7073 31.2253C14.4801 28.2072 14.3287 24.7364 14.3287 20.8883L18.4175 20.9637C20.6134 21.0392 22.1278 22.6991 22.885 26.0191H24.3994V13.7203H22.885C22.1278 16.9647 20.6891 18.6247 18.4175 18.7001L14.3287 18.7756C14.3287 11.9848 14.4801 7.15587 14.7073 4.21322H20.6891C24.9294 4.21322 27.8067 6.92951 29.4726 12.3621L31.2898 11.8339L30.987 1.72328ZM27.4281 24.9627C27.4281 28.8863 28.5639 32.1307 30.7598 34.6961C32.9557 37.2615 36.2116 38.4688 40.3004 38.4688C44.3893 38.4688 47.7209 37.1861 50.1439 34.5452C52.567 31.9798 53.7028 28.7353 53.7028 24.8118C53.7028 20.8883 52.567 17.6438 50.3711 15.0784C48.1752 12.513 44.9193 11.3058 40.8305 11.3058C36.7416 11.3058 33.41 12.5885 30.987 15.2293C28.5639 17.7947 27.4281 21.0392 27.4281 24.9627ZM44.3136 16.3611C45.2222 18.5492 45.6008 21.4164 45.6008 24.8873C45.6008 32.8853 43.935 36.8088 40.679 36.8088C39.0132 36.8088 37.726 35.677 36.8173 33.4134C35.9087 31.1498 35.5301 28.2826 35.5301 24.8873C35.5301 16.9647 37.1959 13.0412 40.4519 13.0412C42.1177 12.9657 43.4049 14.0975 44.3136 16.3611ZM108.296 34.6961C110.795 37.1861 113.975 38.4688 117.761 38.4688C120.109 38.4688 122.153 38.016 123.97 37.0351C125.788 36.1297 127.226 34.9979 128.211 33.6398L127.453 32.7343C125.788 34.017 123.895 34.6207 121.699 34.6207C118.67 34.6207 116.323 33.6398 114.733 31.6026C113.067 29.5653 112.31 26.9999 112.461 23.68H128.665C128.665 20.0583 127.756 17.1156 125.863 14.7766C123.97 12.513 121.32 11.3812 117.913 11.3812C113.672 11.3812 110.417 12.7394 108.069 15.3802C105.722 18.0211 104.586 21.2655 104.586 25.1136C104.586 29.0372 105.798 32.2062 108.296 34.6961ZM113.9 15.7575C114.733 13.9466 115.793 13.0412 117.231 13.0412C119.503 13.0412 120.639 15.9084 120.639 21.7182L112.612 21.8692C112.688 19.6056 113.067 17.5683 113.9 15.7575ZM149.033 12.7394C146.989 11.8339 144.415 11.3058 141.31 11.3058C138.13 11.3058 135.631 12.1358 133.738 13.7203C131.845 15.3048 130.861 17.2665 130.861 19.6056C130.861 21.6428 131.467 23.2273 132.602 24.3591C133.738 25.4909 135.555 26.4718 137.903 27.3017C140.023 28.0563 141.537 28.8108 142.294 29.4899C143.052 30.2444 143.506 31.0744 143.506 32.2062C143.506 33.2625 143.127 34.2434 142.294 34.9979C141.537 35.8279 140.477 36.2052 139.114 36.2052C135.783 36.2052 133.284 33.7907 131.542 28.9617L130.255 29.339L130.558 36.8842C133.284 37.9406 136.313 38.4688 139.644 38.4688C143.127 38.4688 145.777 37.7142 147.746 36.1297C149.715 34.6207 150.699 32.4325 150.699 29.7162C150.699 27.9054 150.245 26.3963 149.261 25.2645C148.276 24.1327 146.686 23.1518 144.415 22.2464C141.916 21.341 140.174 20.511 139.266 19.7565C138.357 19.0019 137.903 18.0965 137.903 16.9647C137.903 15.8329 138.206 14.9275 138.887 14.173C139.568 13.4184 140.401 13.1166 141.461 13.1166C144.49 13.1166 146.686 15.3048 148.049 19.6056L149.336 19.2283L149.033 12.7394ZM76.1914 12.0603C75.1313 11.5321 73.9955 11.3058 72.7083 11.3058C71.4211 11.3058 70.1339 11.8339 68.6952 12.8903C67.2565 13.9466 66.1964 15.3802 65.3635 17.342L65.4392 11.3058L53.9299 13.5694V14.6257L55.0657 14.7011C56.5044 14.852 57.3373 15.9838 57.4887 18.0211C57.943 22.6991 57.943 27.679 57.4887 32.9607C57.3373 34.9979 56.5044 36.0543 55.0657 36.2806L53.9299 36.4315V37.8651H69.9824V36.4315L67.938 36.2806C66.4993 36.1297 65.6664 34.9979 65.515 32.9607C65.0607 28.5844 64.9849 23.9064 65.3635 19.0774C65.8178 18.3229 66.8022 17.8702 68.3166 17.7193C69.831 17.5683 71.5725 18.0211 73.3898 19.0774L76.1914 12.0603Z" fill="black"/>
</g>
<path d="M172.352 8.97075L170.42 16.3347H166.444L169.44 8.97075H172.352ZM177.728 8.97075L175.796 16.3347H171.82L174.816 8.97075H177.728ZM186.811 29.7188L178.859 10.1187H183.255L189.247 25.5467L195.379 10.1187H199.579L191.515 29.7188H186.811ZM205.8 29.9988C204.344 29.9988 203.028 29.6628 201.852 28.9907C200.676 28.3187 199.742 27.4134 199.052 26.2747C198.361 25.1361 198.016 23.8574 198.016 22.4387C198.016 21.0201 198.352 19.7414 199.024 18.6027C199.714 17.4454 200.648 16.5307 201.824 15.8587C203.018 15.1867 204.344 14.8507 205.8 14.8507C207.256 14.8507 208.572 15.1867 209.748 15.8587C210.942 16.5307 211.876 17.4454 212.548 18.6027C213.238 19.7414 213.584 21.0201 213.584 22.4387C213.584 23.8574 213.238 25.1361 212.548 26.2747C211.876 27.4134 210.952 28.3187 209.776 28.9907C208.6 29.6628 207.274 29.9988 205.8 29.9988ZM205.8 26.6667C206.565 26.6667 207.246 26.4801 207.844 26.1067C208.46 25.7334 208.945 25.2294 209.3 24.5947C209.673 23.9414 209.86 23.2227 209.86 22.4387C209.86 21.6361 209.673 20.9174 209.3 20.2827C208.945 19.6481 208.46 19.1441 207.844 18.7707C207.246 18.3787 206.565 18.1827 205.8 18.1827C205.053 18.1827 204.372 18.3787 203.756 18.7707C203.14 19.1441 202.654 19.6481 202.3 20.2827C201.945 20.9174 201.768 21.6361 201.768 22.4387C201.768 23.2227 201.945 23.9414 202.3 24.5947C202.654 25.2294 203.14 25.7334 203.756 26.1067C204.372 26.4801 205.053 26.6667 205.8 26.6667ZM222.003 29.9428C220.379 29.9428 219.147 29.5787 218.307 28.8507C217.486 28.1041 217.075 27.0214 217.075 25.6028V18.3227H214.079V15.1307H217.075V11.4067L220.911 10.5387V15.1307H225.083V18.3227H220.911V24.8187C220.911 25.4907 221.061 25.9761 221.359 26.2747C221.658 26.5547 222.181 26.6947 222.927 26.6947C223.301 26.6947 223.637 26.6761 223.935 26.6387C224.253 26.5827 224.598 26.4894 224.971 26.3587V29.5227C224.579 29.6534 224.094 29.7561 223.515 29.8308C222.937 29.9054 222.433 29.9428 222.003 29.9428ZM233.651 29.9988C232.195 29.9988 230.869 29.6628 229.675 28.9907C228.499 28.3187 227.565 27.4134 226.875 26.2747C226.184 25.1361 225.839 23.8574 225.839 22.4387C225.839 21.0201 226.165 19.7414 226.819 18.6027C227.491 17.4641 228.396 16.5587 229.535 15.8867C230.673 15.2147 231.943 14.8787 233.343 14.8787C234.743 14.8787 235.984 15.2241 237.067 15.9147C238.149 16.6054 238.999 17.5387 239.615 18.7147C240.249 19.8907 240.567 21.2254 240.567 22.7188V23.7267H229.759C229.927 24.3054 230.197 24.8281 230.571 25.2947C230.963 25.7614 231.439 26.1254 231.999 26.3867C232.577 26.6481 233.193 26.7787 233.847 26.7787C234.5 26.7787 235.097 26.6761 235.639 26.4707C236.199 26.2654 236.675 25.9761 237.067 25.6028L239.587 27.8987C238.691 28.6267 237.767 29.1587 236.815 29.4947C235.881 29.8308 234.827 29.9988 233.651 29.9988ZM229.703 20.9827H236.787C236.656 20.4041 236.413 19.9001 236.059 19.4707C235.723 19.0227 235.312 18.6774 234.827 18.4347C234.36 18.1734 233.837 18.0427 233.259 18.0427C232.661 18.0427 232.12 18.1641 231.635 18.4067C231.168 18.6494 230.767 18.9947 230.431 19.4427C230.095 19.8721 229.852 20.3854 229.703 20.9827ZM249.494 29.9148C248.113 29.9148 246.862 29.5787 245.742 28.9067C244.622 28.2347 243.726 27.3387 243.054 26.2188C242.401 25.0801 242.074 23.8107 242.074 22.4107C242.074 21.0107 242.401 19.7507 243.054 18.6307C243.726 17.4921 244.631 16.5961 245.77 15.9427C246.909 15.2707 248.187 14.9348 249.606 14.9348C250.334 14.9348 251.034 15.0374 251.706 15.2427C252.378 15.4294 253.003 15.7094 253.582 16.0827V10.1187L257.418 9.47475V29.7188H253.638V28.5147C252.443 29.4481 251.062 29.9148 249.494 29.9148ZM250.11 26.6387C250.819 26.6387 251.463 26.5174 252.042 26.2747C252.639 26.0321 253.153 25.6867 253.582 25.2387V19.5547C253.153 19.1254 252.639 18.7894 252.042 18.5467C251.445 18.3041 250.801 18.1827 250.11 18.1827C249.307 18.1827 248.579 18.3694 247.926 18.7427C247.291 19.0974 246.787 19.6014 246.414 20.2547C246.041 20.8894 245.854 21.6081 245.854 22.4107C245.854 23.2134 246.041 23.9321 246.414 24.5667C246.787 25.2014 247.291 25.7054 247.926 26.0787C248.579 26.4521 249.307 26.6387 250.11 26.6387ZM265.762 29.7188V10.1187H280.91V13.6467H269.822V18.2667H277.186V21.6827H269.822V29.7188H265.762ZM287.381 29.9988C285.925 29.9988 284.609 29.6628 283.433 28.9907C282.257 28.3187 281.324 27.4134 280.633 26.2747C279.943 25.1361 279.597 23.8574 279.597 22.4387C279.597 21.0201 279.933 19.7414 280.605 18.6027C281.296 17.4454 282.229 16.5307 283.405 15.8587C284.6 15.1867 285.925 14.8507 287.381 14.8507C288.837 14.8507 290.153 15.1867 291.329 15.8587C292.524 16.5307 293.457 17.4454 294.129 18.6027C294.82 19.7414 295.165 21.0201 295.165 22.4387C295.165 23.8574 294.82 25.1361 294.129 26.2747C293.457 27.4134 292.533 28.3187 291.357 28.9907C290.181 29.6628 288.856 29.9988 287.381 29.9988ZM287.381 26.6667C288.147 26.6667 288.828 26.4801 289.425 26.1067C290.041 25.7334 290.527 25.2294 290.881 24.5947C291.255 23.9414 291.441 23.2227 291.441 22.4387C291.441 21.6361 291.255 20.9174 290.881 20.2827C290.527 19.6481 290.041 19.1441 289.425 18.7707C288.828 18.3787 288.147 18.1827 287.381 18.1827C286.635 18.1827 285.953 18.3787 285.337 18.7707C284.721 19.1441 284.236 19.6481 283.881 20.2827C283.527 20.9174 283.349 21.6361 283.349 22.4387C283.349 23.2227 283.527 23.9414 283.881 24.5947C284.236 25.2294 284.721 25.7334 285.337 26.1067C285.953 26.4801 286.635 26.6667 287.381 26.6667ZM297.243 29.7188V15.1307H301.079V16.7547C301.546 16.1201 302.106 15.6347 302.759 15.2987C303.413 14.9627 304.15 14.7947 304.971 14.7947C305.681 14.8134 306.213 14.9254 306.567 15.1307V18.4907C306.287 18.3601 305.979 18.2667 305.643 18.2107C305.307 18.1361 304.962 18.0987 304.607 18.0987C303.861 18.0987 303.179 18.2854 302.563 18.6587C301.947 19.0321 301.453 19.5641 301.079 20.2547V29.7188H297.243ZM313.998 29.7188V10.1187H317.862L327.606 22.7747V10.1187H331.414V29.7188H327.83L317.834 16.6147V29.7188H313.998ZM340.766 29.7188V22.2147L332.758 10.1187H337.434L342.922 18.6307L348.438 10.1187H352.862L344.826 22.2427V29.7188H340.766ZM362.008 29.9988C360.552 29.9988 359.189 29.7468 357.92 29.2427C356.651 28.7201 355.54 28.0014 354.588 27.0867C353.655 26.1721 352.917 25.1081 352.376 23.8947C351.853 22.6627 351.592 21.3374 351.592 19.9187C351.592 18.4814 351.853 17.1561 352.376 15.9427C352.917 14.7107 353.664 13.6374 354.616 12.7227C355.568 11.8081 356.669 11.0987 357.92 10.5947C359.189 10.0721 360.552 9.81075 362.008 9.81075C363.091 9.81075 364.136 9.96008 365.144 10.2587C366.152 10.5574 367.085 10.9774 367.944 11.5187C368.821 12.0601 369.568 12.7134 370.184 13.4787L367.44 16.1947C366.731 15.3174 365.909 14.6547 364.976 14.2067C364.061 13.7587 363.072 13.5347 362.008 13.5347C361.131 13.5347 360.309 13.7027 359.544 14.0387C358.779 14.3561 358.116 14.8041 357.556 15.3827C356.996 15.9427 356.557 16.6147 356.24 17.3987C355.923 18.1641 355.764 19.0041 355.764 19.9187C355.764 20.8147 355.923 21.6547 356.24 22.4387C356.557 23.2041 357.005 23.8761 357.584 24.4547C358.163 25.0147 358.835 25.4534 359.6 25.7707C360.384 26.0881 361.233 26.2467 362.148 26.2467C363.175 26.2467 364.136 26.0321 365.032 25.6028C365.928 25.1734 366.721 24.5574 367.412 23.7547L370.072 26.3867C369.456 27.1334 368.719 27.7774 367.86 28.3187C367.001 28.8601 366.068 29.2801 365.06 29.5787C364.071 29.8588 363.053 29.9988 362.008 29.9988ZM377.518 29.7188V10.1187H386.73C388.056 10.1187 389.213 10.3427 390.202 10.7907C391.21 11.2387 391.985 11.8734 392.526 12.6947C393.086 13.4974 393.366 14.4307 393.366 15.4947C393.366 16.3534 393.142 17.1467 392.694 17.8747C392.265 18.5841 391.677 19.1627 390.93 19.6107C391.882 20.0587 392.638 20.6654 393.198 21.4307C393.758 22.1961 394.038 23.0641 394.038 24.0347C394.038 25.1547 393.749 26.1441 393.17 27.0027C392.61 27.8614 391.808 28.5334 390.762 29.0187C389.736 29.4854 388.541 29.7188 387.178 29.7188H377.518ZM381.578 18.1267H386.478C387.356 18.1267 388.046 17.9214 388.55 17.5107C389.073 17.0814 389.334 16.5121 389.334 15.8027C389.334 15.0934 389.073 14.5334 388.55 14.1227C388.046 13.6934 387.356 13.4787 386.478 13.4787H381.578V18.1267ZM381.578 26.3587H386.87C387.804 26.3587 388.55 26.1347 389.11 25.6867C389.67 25.2201 389.95 24.6041 389.95 23.8387C389.95 23.0547 389.67 22.4387 389.11 21.9907C388.55 21.5241 387.804 21.2907 386.87 21.2907H381.578V26.3587ZM403.212 29.9988C401.756 29.9988 400.431 29.6628 399.236 28.9907C398.06 28.3187 397.127 27.4134 396.436 26.2747C395.746 25.1361 395.4 23.8574 395.4 22.4387C395.4 21.0201 395.727 19.7414 396.38 18.6027C397.052 17.4641 397.958 16.5587 399.096 15.8867C400.235 15.2147 401.504 14.8787 402.904 14.8787C404.304 14.8787 405.546 15.2241 406.628 15.9147C407.711 16.6054 408.56 17.5387 409.176 18.7147C409.811 19.8907 410.128 21.2254 410.128 22.7188V23.7267H399.32C399.488 24.3054 399.759 24.8281 400.132 25.2947C400.524 25.7614 401 26.1254 401.56 26.3867C402.139 26.6481 402.755 26.7787 403.408 26.7787C404.062 26.7787 404.659 26.6761 405.2 26.4707C405.76 26.2654 406.236 25.9761 406.628 25.6028L409.148 27.8987C408.252 28.6267 407.328 29.1587 406.376 29.4947C405.443 29.8308 404.388 29.9988 403.212 29.9988ZM399.264 20.9827H406.348C406.218 20.4041 405.975 19.9001 405.62 19.4707C405.284 19.0227 404.874 18.6774 404.388 18.4347C403.922 18.1734 403.399 18.0427 402.82 18.0427C402.223 18.0427 401.682 18.1641 401.196 18.4067C400.73 18.6494 400.328 18.9947 399.992 19.4427C399.656 19.8721 399.414 20.3854 399.264 20.9827ZM417.795 29.9988C416.451 29.9988 415.21 29.8308 414.071 29.4947C412.933 29.1401 411.943 28.6361 411.103 27.9827L413.007 25.4347C413.847 25.9947 414.65 26.4147 415.415 26.6947C416.199 26.9747 416.974 27.1147 417.739 27.1147C418.598 27.1147 419.279 26.9747 419.783 26.6947C420.306 26.3961 420.567 26.0134 420.567 25.5467C420.567 25.1734 420.418 24.8747 420.119 24.6507C419.839 24.4267 419.382 24.2681 418.747 24.1747L415.947 23.7547C414.491 23.5307 413.39 23.0641 412.643 22.3547C411.897 21.6267 411.523 20.6747 411.523 19.4987C411.523 18.5467 411.766 17.7347 412.251 17.0627C412.755 16.3721 413.455 15.8401 414.351 15.4667C415.266 15.0747 416.349 14.8787 417.599 14.8787C418.663 14.8787 419.699 15.0281 420.707 15.3268C421.734 15.6254 422.695 16.0827 423.591 16.6987L421.743 19.1907C420.941 18.6867 420.175 18.3227 419.447 18.0987C418.719 17.8747 417.982 17.7627 417.235 17.7627C416.545 17.7627 415.985 17.8934 415.555 18.1547C415.145 18.4161 414.939 18.7614 414.939 19.1907C414.939 19.5827 415.089 19.8907 415.387 20.1147C415.686 20.3387 416.199 20.4974 416.927 20.5907L419.727 21.0107C421.165 21.2161 422.266 21.6827 423.031 22.4107C423.797 23.1201 424.179 24.0441 424.179 25.1827C424.179 26.1161 423.899 26.9467 423.339 27.6747C422.779 28.3841 422.023 28.9534 421.071 29.3827C420.119 29.7934 419.027 29.9988 417.795 29.9988ZM432.452 29.9428C430.828 29.9428 429.596 29.5787 428.756 28.8507C427.934 28.1041 427.524 27.0214 427.524 25.6028V18.3227H424.528V15.1307H427.524V11.4067L431.36 10.5387V15.1307H435.532V18.3227H431.36V24.8187C431.36 25.4907 431.509 25.9761 431.808 26.2747C432.106 26.5547 432.629 26.6947 433.376 26.6947C433.749 26.6947 434.085 26.6761 434.384 26.6387C434.701 26.5827 435.046 26.4894 435.42 26.3587V29.5227C435.028 29.6534 434.542 29.7561 433.964 29.8308C433.385 29.9054 432.881 29.9428 432.452 29.9428ZM442.728 29.7188V10.1187H447.936L453.312 20.6747L458.688 10.1187H463.896V29.7188H460.06V15.2987L453.256 28.3187L446.48 15.2427V29.7188H442.728ZM473.999 29.9988C472.543 29.9988 471.227 29.6628 470.051 28.9907C468.875 28.3187 467.942 27.4134 467.251 26.2747C466.561 25.1361 466.215 23.8574 466.215 22.4387C466.215 21.0201 466.551 19.7414 467.223 18.6027C467.914 17.4454 468.847 16.5307 470.023 15.8587C471.218 15.1867 472.543 14.8507 473.999 14.8507C475.455 14.8507 476.771 15.1867 477.947 15.8587C479.142 16.5307 480.075 17.4454 480.747 18.6027C481.438 19.7414 481.783 21.0201 481.783 22.4387C481.783 23.8574 481.438 25.1361 480.747 26.2747C480.075 27.4134 479.151 28.3187 477.975 28.9907C476.799 29.6628 475.474 29.9988 473.999 29.9988ZM473.999 26.6667C474.765 26.6667 475.446 26.4801 476.043 26.1067C476.659 25.7334 477.145 25.2294 477.499 24.5947C477.873 23.9414 478.059 23.2227 478.059 22.4387C478.059 21.6361 477.873 20.9174 477.499 20.2827C477.145 19.6481 476.659 19.1441 476.043 18.7707C475.446 18.3787 474.765 18.1827 473.999 18.1827C473.253 18.1827 472.571 18.3787 471.955 18.7707C471.339 19.1441 470.854 19.6481 470.499 20.2827C470.145 20.9174 469.967 21.6361 469.967 22.4387C469.967 23.2227 470.145 23.9414 470.499 24.5947C470.854 25.2294 471.339 25.7334 471.955 26.1067C472.571 26.4801 473.253 26.6667 473.999 26.6667ZM488.183 29.7188L481.939 15.1307H486.111L490.115 24.8467L494.091 15.1307H498.179L491.907 29.7188H488.183ZM506.143 29.9988C504.687 29.9988 503.362 29.6628 502.167 28.9907C500.991 28.3187 500.058 27.4134 499.367 26.2747C498.676 25.1361 498.331 23.8574 498.331 22.4387C498.331 21.0201 498.658 19.7414 499.311 18.6027C499.983 17.4641 500.888 16.5587 502.027 15.8867C503.166 15.2147 504.435 14.8787 505.835 14.8787C507.235 14.8787 508.476 15.2241 509.559 15.9147C510.642 16.6054 511.491 17.5387 512.107 18.7147C512.742 19.8907 513.059 21.2254 513.059 22.7188V23.7267H502.251C502.419 24.3054 502.69 24.8281 503.063 25.2947C503.455 25.7614 503.931 26.1254 504.491 26.3867C505.07 26.6481 505.686 26.7787 506.339 26.7787C506.992 26.7787 507.59 26.6761 508.131 26.4707C508.691 26.2654 509.167 25.9761 509.559 25.6028L512.079 27.8987C511.183 28.6267 510.259 29.1587 509.307 29.4947C508.374 29.8308 507.319 29.9988 506.143 29.9988ZM502.195 20.9827H509.279C509.148 20.4041 508.906 19.9001 508.551 19.4707C508.215 19.0227 507.804 18.6774 507.319 18.4347C506.852 18.1734 506.33 18.0427 505.751 18.0427C505.154 18.0427 504.612 18.1641 504.127 18.4067C503.66 18.6494 503.259 18.9947 502.923 19.4427C502.587 19.8721 502.344 20.3854 502.195 20.9827ZM515.129 29.7188V15.1307H518.965V16.7547C519.432 16.1201 519.992 15.6347 520.645 15.2987C521.299 14.9627 522.036 14.7947 522.857 14.7947C523.567 14.8134 524.099 14.9254 524.453 15.1307V18.4907C524.173 18.3601 523.865 18.2667 523.529 18.2107C523.193 18.1361 522.848 18.0987 522.493 18.0987C521.747 18.0987 521.065 18.2854 520.449 18.6587C519.833 19.0321 519.339 19.5641 518.965 20.2547V29.7188H515.129ZM531.903 29.9988C530.559 29.9988 529.318 29.8308 528.179 29.4947C527.04 29.1401 526.051 28.6361 525.211 27.9827L527.115 25.4347C527.955 25.9947 528.758 26.4147 529.523 26.6947C530.307 26.9747 531.082 27.1147 531.847 27.1147C532.706 27.1147 533.387 26.9747 533.891 26.6947C534.414 26.3961 534.675 26.0134 534.675 25.5467C534.675 25.1734 534.526 24.8747 534.227 24.6507C533.947 24.4267 533.49 24.2681 532.855 24.1747L530.055 23.7547C528.599 23.5307 527.498 23.0641 526.751 22.3547C526.004 21.6267 525.631 20.6747 525.631 19.4987C525.631 18.5467 525.874 17.7347 526.359 17.0627C526.863 16.3721 527.563 15.8401 528.459 15.4667C529.374 15.0747 530.456 14.8787 531.707 14.8787C532.771 14.8787 533.807 15.0281 534.815 15.3268C535.842 15.6254 536.803 16.0827 537.699 16.6987L535.851 19.1907C535.048 18.6867 534.283 18.3227 533.555 18.0987C532.827 17.8747 532.09 17.7627 531.343 17.7627C530.652 17.7627 530.092 17.8934 529.663 18.1547C529.252 18.4161 529.047 18.7614 529.047 19.1907C529.047 19.5827 529.196 19.8907 529.495 20.1147C529.794 20.3387 530.307 20.4974 531.035 20.5907L533.835 21.0107C535.272 21.2161 536.374 21.6827 537.139 22.4107C537.904 23.1201 538.287 24.0441 538.287 25.1827C538.287 26.1161 538.007 26.9467 537.447 27.6747C536.887 28.3841 536.131 28.9534 535.179 29.3827C534.227 29.7934 533.135 29.9988 531.903 29.9988ZM544.148 16.3347L546.08 8.97075H550.056L547.06 16.3347H544.148ZM538.772 16.3347L540.704 8.97075H544.68L541.684 16.3347H538.772Z" fill="#2D1D38"/>
<defs>
<clipPath id="clip0_5346_9477">
<rect width="150" height="37.5" fill="white" transform="translate(0.699219 0.96875)"/>
</clipPath>
</defs>
</svg>
