<svg width="145" height="45" viewBox="0 0 145 45" fill="none" xmlns="http://www.w3.org/2000/svg">
<g clip-path="url(#clip0_5342_8073)">
<path fill-rule="evenodd" clip-rule="evenodd" d="M89.9607 34.7121C81.6018 40.8661 69.486 44.1495 59.0545 44.1495C44.4279 44.1495 31.2602 38.746 21.2983 29.759C20.5157 29.0522 21.2169 28.0891 22.1561 28.6395C32.907 34.8873 46.1999 38.6459 59.9311 38.6459C69.1917 38.6459 79.379 36.7322 88.746 32.7609C90.1611 32.1605 91.3445 33.6865 89.9607 34.7121Z" fill="black"/>
<path fill-rule="evenodd" clip-rule="evenodd" d="M93.4264 30.7425C92.3619 29.3792 86.3635 30.0984 83.6711 30.4173C82.8509 30.5174 82.7257 29.8044 83.4645 29.2916C88.2419 25.9332 96.0812 26.9026 96.9954 28.0283C97.9095 29.1603 96.7574 37.0091 92.268 40.7552C91.5793 41.3306 90.9218 41.0242 91.2286 40.2612C92.2367 37.7471 94.4971 32.1122 93.4264 30.7425Z" fill="black"/>
<path fill-rule="evenodd" clip-rule="evenodd" d="M83.864 5.58233V2.31772C83.864 1.82365 84.2397 1.49219 84.6905 1.49219H99.3234C99.793 1.49219 100.169 1.82991 100.169 2.31772V5.11327C100.162 5.58233 99.7679 6.19522 99.0667 7.1646L91.4841 17.9778C94.3017 17.909 97.2759 18.3281 99.8306 19.7665C100.407 20.0917 100.563 20.567 100.607 21.0361V24.5196C100.607 24.9949 100.081 25.5515 99.53 25.2638C95.0281 22.906 89.0484 22.6496 84.0706 25.2888C83.5635 25.564 83.0312 25.0136 83.0312 24.5383V21.2299C83.0312 20.6983 83.0375 19.7915 83.5697 18.9847L92.3545 6.40161H84.7093C84.2397 6.40161 83.864 6.07015 83.864 5.58233Z" fill="black"/>
<path fill-rule="evenodd" clip-rule="evenodd" d="M30.4892 25.9489H26.0374C25.6116 25.9176 25.2735 25.5986 25.2422 25.1921V2.37116C25.2422 1.91461 25.6241 1.55187 26.1 1.55187H30.2513C30.6833 1.57062 31.0277 1.9021 31.059 2.31487V5.29805H31.1404C32.2236 2.41493 34.2586 1.07031 37.0011 1.07031C39.7874 1.07031 41.5281 2.41493 42.7803 5.29805C43.8573 2.41493 46.3055 1.07031 48.929 1.07031C50.7949 1.07031 52.8361 1.83956 54.0822 3.56567C55.491 5.48566 55.2029 8.27496 55.2029 10.7203L55.1967 25.1233C55.1967 25.5799 54.8147 25.9489 54.3389 25.9489H49.8933C49.4487 25.9176 49.0918 25.5611 49.0918 25.1233V13.028C49.0918 12.0649 49.1795 9.66336 48.9666 8.75027C48.6348 7.21803 47.6392 6.7865 46.3493 6.7865C45.2724 6.7865 44.1453 7.50572 43.6882 8.65646C43.2312 9.8072 43.275 11.7334 43.275 13.028V25.1233C43.275 25.5799 42.8931 25.9489 42.4172 25.9489H37.9716C37.5208 25.9176 37.1701 25.5611 37.1701 25.1233L37.1639 13.028C37.1639 10.4826 37.5834 6.73647 34.4214 6.73647C31.2218 6.73647 31.347 10.3888 31.347 13.028V25.1233C31.347 25.5799 30.9651 25.9489 30.4892 25.9489Z" fill="black"/>
<path fill-rule="evenodd" clip-rule="evenodd" d="M112.768 1.07031C119.374 1.07031 122.949 6.73647 122.949 13.9411C122.949 20.9019 118.998 26.4242 112.768 26.4242C106.281 26.4242 102.75 20.758 102.75 13.6972C102.75 6.59263 106.325 1.07031 112.768 1.07031ZM112.806 5.72957C109.525 5.72957 109.318 10.195 109.318 12.978C109.318 15.7673 109.274 21.7211 112.768 21.7211C116.218 21.7211 116.381 16.918 116.381 13.9911C116.381 12.0649 116.3 9.76343 115.717 7.93724C115.216 6.34872 114.221 5.72957 112.806 5.72957Z" fill="black"/>
<path fill-rule="evenodd" clip-rule="evenodd" d="M131.514 25.9489H127.081C126.637 25.9176 126.28 25.5611 126.28 25.1233L126.273 2.2961C126.311 1.87708 126.68 1.55187 127.131 1.55187H131.258C131.646 1.57062 131.965 1.83331 132.053 2.18979V5.67954H132.134C133.38 2.55877 135.127 1.07031 138.201 1.07031C140.199 1.07031 142.146 1.78953 143.398 3.75955C144.563 5.58573 144.563 8.65646 144.563 10.8641V25.2297C144.513 25.6299 144.143 25.9489 143.705 25.9489H139.241C138.834 25.9176 138.496 25.6174 138.452 25.2297V12.8342C138.452 10.3388 138.74 6.68644 135.666 6.68644C134.582 6.68644 133.587 7.41191 133.092 8.51262C132.466 9.90727 132.385 11.2957 132.385 12.8342V25.1233C132.378 25.5799 131.99 25.9489 131.514 25.9489Z" fill="black"/>
<path fill-rule="evenodd" clip-rule="evenodd" d="M72.1957 15.0482C72.1957 16.7806 72.2396 18.2253 71.363 19.7638C70.6554 21.0146 69.5284 21.7838 68.2824 21.7838C66.573 21.7838 65.5712 20.483 65.5712 18.563C65.5712 14.773 68.9711 14.0851 72.1957 14.0851V15.0482ZM76.6852 25.8865C76.3909 26.1491 75.9651 26.1679 75.6332 25.9928C74.1556 24.767 73.8863 24.1979 73.0786 23.0284C70.6367 25.5175 68.9022 26.2617 65.7402 26.2617C61.9897 26.2617 59.0781 23.954 59.0781 19.3322C59.0781 15.7237 61.0317 13.2658 63.8243 12.0651C66.2412 11.0019 69.616 10.8142 72.1957 10.5203V9.94493C72.1957 8.888 72.2771 7.63719 71.651 6.72411C71.1125 5.90482 70.0731 5.56711 69.1527 5.56711C67.4559 5.56711 65.9469 6.43642 65.5774 8.23758C65.5023 8.63784 65.208 9.03184 64.801 9.05061L60.4869 8.5878C60.1238 8.50651 59.7168 8.21256 59.8232 7.65596C60.8125 2.42758 65.5461 0.851562 69.7788 0.851562C71.9453 0.851562 74.7754 1.42693 76.4848 3.06549C78.6512 5.08554 78.4446 7.78103 78.4446 10.7142V17.6437C78.4446 19.7262 79.3087 20.6393 80.1227 21.7651C80.4044 22.1653 80.467 22.6469 80.1039 22.9471C79.196 23.7038 77.5805 25.111 76.6914 25.899L76.6852 25.8865Z" fill="black"/>
<path fill-rule="evenodd" clip-rule="evenodd" d="M13.8364 15.0482C13.8364 16.7806 13.8802 18.2253 13.0036 19.7638C12.2961 21.0146 11.1753 21.7838 9.92299 21.7838C8.21363 21.7838 7.21807 20.483 7.21807 18.563C7.21807 14.773 10.618 14.0851 13.8364 14.0851V15.0482ZM18.3258 25.8865C18.0315 26.1491 17.6057 26.1679 17.2739 25.9928C15.7962 24.767 15.5332 24.1979 14.7192 23.0284C12.2773 25.5175 10.5491 26.2617 7.38087 26.2617C3.63655 26.2617 0.71875 23.954 0.71875 19.3322C0.71875 15.7237 2.67856 13.2658 5.46488 12.0651C7.88178 11.0019 11.2567 10.8142 13.8364 10.5203V9.94493C13.8364 8.888 13.9178 7.63719 13.2979 6.72411C12.7531 5.90482 11.7138 5.56711 10.7996 5.56711C9.10275 5.56711 7.5875 6.43642 7.21807 8.23758C7.14294 8.63784 6.84865 9.03184 6.44792 9.05061L2.12756 8.5878C1.7644 8.50651 1.36367 8.21256 1.46385 7.65596C2.45942 2.42758 7.18676 0.851562 11.4195 0.851562C13.5859 0.851562 16.4161 1.42693 18.1254 3.06549C20.2919 5.08554 20.0852 7.78103 20.0852 10.7142V17.6437C20.0852 19.7262 20.9493 20.6393 21.7633 21.7651C22.0513 22.1653 22.1139 22.6469 21.7508 22.9471C20.8429 23.7038 19.2274 25.111 18.3383 25.899L18.3258 25.8865Z" fill="black"/>
</g>
<defs>
<clipPath id="clip0_5342_8073">
<rect width="143.843" height="43.2967" fill="white" transform="translate(0.71875 0.851562)"/>
</clipPath>
</defs>
</svg>
