<svg width="414" height="97" viewBox="0 0 414 97" fill="none" xmlns="http://www.w3.org/2000/svg">
<g clip-path="url(#clip0_5422_6410)">
<path d="M130.362 85.0793L121.216 75.4609H116.35V93.9105H122.232V83.5548L130.248 92.5078L138.342 83.5548V93.9105H144.225V75.4609H139.358L130.362 85.0793Z" fill="#2D1D38"/>
<path d="M152.385 78.7814V80.0912V93.9105H178.936V75.4609H152.385V78.7814ZM172.667 89.28H158.654V80.0912H172.667V89.28Z" fill="#2D1D38"/>
<path d="M201.571 87.9991L193.635 75.4609H186.9L198.93 93.9105H204.026L216.013 75.4609H209.322L201.571 87.9991Z" fill="#2D1D38"/>
<path d="M230.621 75.4609H224.395V93.9105H230.621V75.4609Z" fill="#2D1D38"/>
<path d="M258.199 86.2458L243.171 75.4609H238.619V93.9105H244.38V83.0897L259.408 93.9105H263.961V75.4609H258.199V86.2458Z" fill="#2D1D38"/>
<path d="M283.453 86.2172H290.924V89.28H278.008V80.0912H291.362L296.807 75.4609H272.125V93.9105H296.807V83.1541H283.453V86.2172Z" fill="#2D1D38"/>
<path d="M85.3764 34.1085L87.1583 29.514H108.886L111.419 23.0015L89.6632 23.0587L91.4522 18.4714H134.8L141.119 2.26172H80.3024L61.7168 50.3253H122.426L128.731 34.1085H85.3764Z" fill="#2D1D38"/>
<path d="M53.8682 2.26172L41.6591 33.8866L20.5329 2.31186H0.923828L33.0496 50.3253H52.6372L71.3231 2.26172H53.8682Z" fill="#2D1D38"/>
<path d="M219.89 2.26172L213.621 18.4785H230.675L218.352 50.2681H235.685L248.038 18.4785H265.04L271.31 2.26172H219.89Z" fill="#2D1D38"/>
<path d="M189.293 18.4714L204.63 18.3855L210.913 2.26172H150.111L131.525 50.3253H192.22L198.525 34.1085H155.178L161.254 18.4714H189.293Z" fill="#2D1D38"/>
<path d="M341.087 2.26172H280.349L261.77 50.3253H322.416L341.087 2.26172ZM311.401 34.1156H285.423L291.498 18.4857H317.476L311.401 34.1156Z" fill="#2D1D38"/>
<path d="M406.847 18.4785L413.1 2.28321L350.066 2.26172L331.486 50.3253H348.841L355.241 33.8436L382.249 50.3253H408.985L376.646 30.5945L406.847 18.4785ZM361.201 18.4785H384.883L356.835 29.7216L361.201 18.4785Z" fill="#2D1D38"/>
</g>
<defs>
<clipPath id="clip0_5422_6410">
<rect width="412.168" height="96.1726" fill="white" transform="translate(0.916016)"/>
</clipPath>
</defs>
</svg>
