<svg width="414" height="97" viewBox="0 0 414 97" fill="none" xmlns="http://www.w3.org/2000/svg">
<g clip-path="url(#clip0_5422_6384)">
<path d="M130.376 85.1028L121.23 75.4844H116.363V93.9339H122.246V83.5782L130.261 92.5312L138.355 83.5782V93.9339H144.238V75.4844H139.372L130.376 85.1028Z" fill="#DE643B"/>
<path d="M152.398 78.8048V80.1146V93.9339H178.949V75.4844H152.398V78.8048ZM172.68 89.3035H158.668V80.1146H172.68V89.3035Z" fill="#DE643B"/>
<path d="M201.585 88.0225L193.648 75.4844H186.914L198.944 93.9339H204.04L216.027 75.4844H209.336L201.585 88.0225Z" fill="#DE643B"/>
<path d="M230.635 75.4844H224.408V93.9339H230.635V75.4844Z" fill="#DE643B"/>
<path d="M258.213 86.2692L243.185 75.4844H238.633V93.9339H244.394V83.1132L259.422 93.9339H263.974V75.4844H258.213V86.2692Z" fill="#DE643B"/>
<path d="M283.466 86.2406H290.938V89.3035H278.021V80.1146H291.375L296.821 75.4844H272.139V93.9339H296.821V83.1775H283.466V86.2406Z" fill="#DE643B"/>
<path d="M85.3901 34.1319L87.172 29.5374H108.899L111.433 23.0249L89.6769 23.0821L91.4659 18.4948H134.813L141.132 2.28516H80.3161L61.7305 50.3487H122.44L128.744 34.1319H85.3901Z" fill="#DE643B"/>
<path d="M53.8819 2.28516L41.6728 33.9101L20.5465 2.3353H0.9375L33.0633 50.3487H52.6509L71.3368 2.28516H53.8819Z" fill="#DE643B"/>
<path d="M219.904 2.28516L213.635 18.502H230.688L218.365 50.2915H235.698L248.052 18.502H265.054L271.323 2.28516H219.904Z" fill="#DE643B"/>
<path d="M189.307 18.4948L204.644 18.4089L210.927 2.28516H150.125L131.539 50.3487H192.234L198.539 34.1319H155.192L161.268 18.4948H189.307Z" fill="#DE643B"/>
<path d="M341.1 2.28516H280.363L261.783 50.3487H322.429L341.1 2.28516ZM311.415 34.139H285.437L291.512 18.5091H317.49L311.415 34.139Z" fill="#DE643B"/>
<path d="M406.86 18.502L413.114 2.30665L350.08 2.28516L331.5 50.3487H348.855L355.255 33.867L382.263 50.3487H408.999L376.66 30.618L406.86 18.502ZM361.215 18.502H384.896L356.848 29.7451L361.215 18.502Z" fill="#DE643B"/>
</g>
<defs>
<clipPath id="clip0_5422_6384">
<rect width="412.168" height="96.1726" fill="white" transform="translate(0.929688 0.0234375)"/>
</clipPath>
</defs>
</svg>
