<svg width="10" height="9" viewBox="0 0 10 9" fill="none" xmlns="http://www.w3.org/2000/svg">
<path d="M7.33832 8.51111C7.27461 8.51136 7.21244 8.49161 7.16067 8.45467L4.72742 6.70043L2.29416 8.45467C2.24218 8.49216 2.17955 8.51225 2.11533 8.51202C2.05111 8.51178 1.98863 8.49125 1.93692 8.45338C1.88521 8.41551 1.84695 8.36227 1.82768 8.30135C1.8084 8.24043 1.8091 8.175 1.82968 8.11451L2.77869 5.31927L0.319142 3.64198C0.265866 3.60569 0.225657 3.55341 0.204389 3.49277C0.183121 3.43214 0.181909 3.36633 0.200929 3.30496C0.21995 3.24359 0.258207 3.18988 0.31011 3.15168C0.362013 3.11347 0.424843 3.09277 0.489419 3.0926H3.52375L4.43946 0.290216C4.45918 0.229714 4.49767 0.176979 4.54941 0.139578C4.60114 0.102177 4.66346 0.0820312 4.72742 0.0820312C4.79137 0.0820312 4.85369 0.102177 4.90542 0.139578C4.95716 0.176979 4.99565 0.229714 5.01537 0.290216L5.93108 3.09354H8.96541C9.03007 3.09351 9.09304 3.11407 9.14509 3.1522C9.19715 3.19033 9.23556 3.24404 9.2547 3.30545C9.27385 3.36687 9.27271 3.43277 9.25146 3.49349C9.23022 3.55422 9.18997 3.60658 9.13663 3.64292L6.67614 5.31927L7.62458 8.11375C7.63994 8.159 7.64427 8.20723 7.63719 8.25446C7.63011 8.30169 7.61183 8.34657 7.58386 8.38539C7.5559 8.42421 7.51905 8.45586 7.47635 8.47772C7.43366 8.49958 7.38634 8.51103 7.33832 8.51111Z" fill="#2D1D38"/>
</svg>
