<svg width="10" height="92" viewBox="0 0 10 92" fill="none" xmlns="http://www.w3.org/2000/svg">
<path d="M9.39844 91.8667H0.998437L0.998437 87.9187C0.998437 87.3507 1.09444 86.8547 1.28644 86.4307C1.47844 85.9987 1.75044 85.6667 2.10244 85.4347C2.44644 85.1947 2.84644 85.0747 3.30244 85.0747C3.67044 85.0747 4.01044 85.1707 4.32244 85.3627C4.62644 85.5467 4.87444 85.7987 5.06644 86.1187C5.25844 85.7107 5.51844 85.3867 5.84644 85.1467C6.17444 84.9067 6.54644 84.7867 6.96244 84.7867C7.44244 84.7867 7.86644 84.9107 8.23444 85.1587C8.60244 85.3987 8.89044 85.7427 9.09844 86.1907C9.29844 86.6307 9.39844 87.1427 9.39844 87.7267V91.8667ZM4.43044 90.1267V88.0267C4.43044 87.6507 4.34244 87.3547 4.16644 87.1387C3.98244 86.9147 3.73844 86.8027 3.43444 86.8027C3.13044 86.8027 2.89044 86.9147 2.71444 87.1387C2.53044 87.3547 2.43844 87.6507 2.43844 88.0267V90.1267H4.43044ZM7.95844 90.1267V87.8587C7.95844 87.4587 7.86244 87.1387 7.67044 86.8987C7.47044 86.6587 7.20644 86.5387 6.87844 86.5387C6.54244 86.5387 6.27844 86.6587 6.08644 86.8987C5.88644 87.1387 5.78644 87.4587 5.78644 87.8587V90.1267H7.95844ZM9.39844 80.0648H6.18244L0.998437 83.4968L0.998437 81.4928L4.64644 79.1408L0.998437 76.7768L0.998437 74.8808L6.19444 78.3248H9.39844V80.0648ZM7.85044 67.1621V65.6981C7.85044 65.3221 7.78644 64.9741 7.65844 64.6541C7.52244 64.3261 7.33444 64.0421 7.09444 63.8021C6.85444 63.5541 6.57444 63.3661 6.25444 63.2381C5.93444 63.1021 5.58644 63.0341 5.21044 63.0341C4.83444 63.0341 4.48644 63.1021 4.16644 63.2381C3.83844 63.3741 3.55444 63.5621 3.31444 63.8021C3.07444 64.0421 2.88644 64.3261 2.75044 64.6541C2.61444 64.9741 2.54644 65.3221 2.54644 65.6981V67.1621H7.85044ZM9.39844 68.9021H0.998437L0.998437 65.6741C0.998437 65.0421 1.10644 64.4581 1.32244 63.9221C1.53044 63.3861 1.82644 62.9181 2.21044 62.5181C2.59444 62.1181 3.04244 61.8061 3.55444 61.5821C4.06644 61.3501 4.61844 61.2341 5.21044 61.2341C5.81044 61.2341 6.36244 61.3461 6.86644 61.5701C7.37044 61.7941 7.81444 62.1101 8.19844 62.5181C8.57444 62.9181 8.87044 63.3861 9.08644 63.9221C9.29444 64.4581 9.39844 65.0421 9.39844 65.6741V68.9021ZM9.39844 58.6027H0.998437L0.998437 56.8627H9.39844V58.6027ZM9.51844 50.8932C9.51844 51.5732 9.39444 52.2372 9.14644 52.8852C8.89044 53.5332 8.53044 54.1092 8.06644 54.6132L6.81844 53.6172C7.24244 53.1292 7.55444 52.6612 7.75444 52.2132C7.94644 51.7572 8.04244 51.2772 8.04244 50.7732C8.04244 50.4212 8.00244 50.1172 7.92244 49.8612C7.83444 49.6052 7.71044 49.4092 7.55044 49.2732C7.39044 49.1292 7.20244 49.0572 6.98644 49.0572C6.69844 49.0572 6.47844 49.1612 6.32644 49.3692C6.16644 49.5772 6.04244 49.9332 5.95444 50.4372L5.66644 52.1052C5.54644 52.8172 5.29444 53.3612 4.91044 53.7372C4.52644 54.1052 4.03044 54.2892 3.42244 54.2892C2.90244 54.2892 2.45044 54.1572 2.06644 53.8932C1.68244 53.6212 1.39044 53.2412 1.19044 52.7532C0.982437 52.2572 0.878437 51.6692 0.878437 50.9892C0.878437 50.3732 0.982437 49.7612 1.19044 49.1532C1.39844 48.5372 1.68644 47.9932 2.05444 47.5212L3.35044 48.4572C2.67844 49.3372 2.34244 50.2212 2.34244 51.1092C2.34244 51.4212 2.38244 51.6932 2.46244 51.9252C2.54244 52.1572 2.65444 52.3372 2.79844 52.4652C2.93444 52.5852 3.09844 52.6452 3.29044 52.6452C3.54644 52.6452 3.74644 52.5532 3.89044 52.3692C4.02644 52.1852 4.13044 51.8772 4.20244 51.4452L4.46644 49.8612C4.60244 49.0212 4.87044 48.3932 5.27044 47.9772C5.66244 47.5612 6.18244 47.3532 6.83044 47.3532C7.37444 47.3532 7.85044 47.4972 8.25844 47.7852C8.65844 48.0732 8.97044 48.4852 9.19444 49.0212C9.41044 49.5492 9.51844 50.1732 9.51844 50.8932ZM9.39844 42.7667H2.53444L2.53444 45.5987H0.998437L0.998437 38.2067H2.53444L2.53444 41.0267H9.39844V42.7667ZM9.39844 38.1414L0.998437 34.6854L0.998437 32.6814L9.39844 29.2614V31.1454L7.19044 31.9974V35.4654L9.39844 36.3294V38.1414ZM5.79844 34.9254V32.5254L2.70244 33.7254L5.79844 34.9254ZM9.39844 27.1084H0.998437L0.998437 25.4524L6.42244 21.2764H0.998437V19.6444H9.39844L9.39844 21.1804L3.78244 25.4644H9.39844V27.1084ZM9.51844 12.5401C9.51844 13.1641 9.41044 13.7481 9.19444 14.2921C8.97044 14.8361 8.66244 15.3121 8.27044 15.7201C7.87844 16.1201 7.42244 16.4361 6.90244 16.6681C6.37444 16.8921 5.80644 17.0041 5.19844 17.0041C4.58244 17.0041 4.01444 16.8921 3.49444 16.6681C2.96644 16.4361 2.50644 16.1161 2.11444 15.7081C1.72244 15.3001 1.41844 14.8281 1.20244 14.2921C0.978437 13.7481 0.866437 13.1641 0.866437 12.5401C0.866437 12.0761 0.930437 11.6281 1.05844 11.1961C1.18644 10.7641 1.36644 10.3641 1.59844 9.9961C1.83044 9.6201 2.11044 9.3001 2.43844 9.0361L3.60244 10.2121C3.22644 10.5161 2.94244 10.8681 2.75044 11.2681C2.55844 11.6601 2.46244 12.0841 2.46244 12.5401C2.46244 12.9161 2.53444 13.2681 2.67844 13.5961C2.81444 13.9241 3.00644 14.2081 3.25444 14.4481C3.49444 14.6881 3.78244 14.8761 4.11844 15.0121C4.44644 15.1481 4.80644 15.2161 5.19844 15.2161C5.58244 15.2161 5.94244 15.1481 6.27844 15.0121C6.60644 14.8761 6.89444 14.6841 7.14244 14.4361C7.38244 14.1881 7.57044 13.9001 7.70644 13.5721C7.84244 13.2361 7.91044 12.8721 7.91044 12.4801C7.91044 12.0401 7.81844 11.6281 7.63444 11.2441C7.45044 10.8601 7.18644 10.5201 6.84244 10.2241L7.97044 9.0841C8.29044 9.3481 8.56644 9.6641 8.79844 10.0321C9.03044 10.4001 9.21044 10.8001 9.33844 11.2321C9.45844 11.6561 9.51844 12.0921 9.51844 12.5401ZM9.39844 6.62681H0.998437L0.998437 0.170812H2.51044L2.51044 4.88681H4.43044V1.77881H5.89444V4.88681H7.88644V0.122812H9.39844V6.62681Z" fill="#2D1D38"/>
</svg>
