<svg width="12" height="14" viewBox="0 0 12 14" fill="none" xmlns="http://www.w3.org/2000/svg">
<path d="M9.03493 13.7811C8.6695 13.8524 8.28203 13.7907 7.94568 13.5921C6.10879 12.5076 4.47372 11.0228 3.21901 9.29905C1.94685 7.55245 1.06054 5.59444 0.585414 3.48118C0.449139 2.87663 0.682457 2.25226 1.18006 1.88963L2.72335 0.765711C3.05685 0.524046 3.46408 0.425616 3.86955 0.489086C4.27578 0.55306 4.63305 0.771778 4.87522 1.10454L6.08421 2.76535C6.32638 3.09809 6.42481 3.50532 6.36083 3.91155C6.29686 4.31777 6.07814 4.67504 5.74538 4.91722L4.78491 5.61609C4.98121 6.28023 5.2931 6.91331 5.70875 7.4849C6.12242 8.053 6.62685 8.54321 7.20812 8.94121L8.16319 8.23816C8.84928 7.73868 9.81525 7.88965 10.3157 8.57685L11.5247 10.2377C11.7792 10.587 11.8679 11.0111 11.775 11.4302C11.6825 11.8446 11.4236 12.2169 11.025 12.5072L9.64086 13.5151C9.45642 13.6492 9.24865 13.7375 9.03317 13.7795L9.03493 13.7811ZM3.53181 1.5091C3.45999 1.52312 3.39111 1.55225 3.32871 1.59778L1.78541 2.72171C1.6193 2.84241 1.54202 3.05305 1.58763 3.25671C2.03207 5.23279 2.86058 7.06211 4.04981 8.69546C5.22301 10.307 6.75085 11.6945 8.46804 12.7086C8.64908 12.8152 8.87246 12.8069 9.03807 12.687L10.4222 11.6791C10.613 11.5405 10.738 11.3736 10.7741 11.2096C10.8025 11.0804 10.7759 10.9541 10.6962 10.8441L9.48722 9.1833C9.40667 9.07213 9.28791 8.99982 9.15218 8.9779C9.01644 8.95599 8.88095 8.98896 8.7699 9.07015L7.81006 9.7689C7.45837 10.0246 6.98458 10.0333 6.62969 9.78992C5.95166 9.32507 5.36338 8.75376 4.88079 8.09046C4.3962 7.4237 4.0318 6.68576 3.79871 5.89672C3.67839 5.48788 3.83218 5.04255 4.18261 4.78712L5.14296 4.08761C5.37212 3.92125 5.42298 3.59868 5.25548 3.37042L4.04649 1.70961C3.92578 1.54349 3.72191 1.47077 3.53228 1.50777L3.53181 1.5091Z" fill="#FAFAFA"/>
</svg>
