<svg width="600" height="54" viewBox="0 0 600 54" fill="none" xmlns="http://www.w3.org/2000/svg">
<rect x="0.25" y="0.476562" width="600" height="53.4407" fill="#DE643B"/>
<g clip-path="url(#clip0_7002_6777)">
<path d="M284.626 36.6917L282.279 34.2227H281.029V38.9587H282.539V36.3003L284.597 38.5986L286.675 36.3003V38.9587H288.185V34.2227H286.936L284.626 36.6917Z" fill="#161716"/>
<path d="M290.281 35.075V35.4112V38.9587H297.097V34.2227H290.281V35.075ZM295.488 37.77H291.891V35.4112H295.488V37.77Z" fill="#161716"/>
<path d="M302.907 37.4412L300.869 34.2227H299.141L302.229 38.9587H303.537L306.614 34.2227H304.896L302.907 37.4412Z" fill="#161716"/>
<path d="M310.364 34.2227H308.766V38.9587H310.364V34.2227Z" fill="#161716"/>
<path d="M317.444 36.9911L313.587 34.2227H312.418V38.9587H313.897V36.181L317.755 38.9587H318.923V34.2227H317.444V36.9911Z" fill="#161716"/>
<path d="M323.925 36.9838H325.843V37.77H322.528V35.4112H325.956L327.353 34.2227H321.018V38.9587H327.353V36.1975H323.925V36.9838Z" fill="#161716"/>
<path d="M273.079 23.6087L273.537 22.4292H279.114L279.764 20.7575L274.18 20.7722L274.639 19.5946H285.766L287.388 15.4336H271.777L267.006 27.7715H282.59L284.208 23.6087H273.079Z" fill="#161716"/>
<path d="M264.991 15.4336L261.857 23.5517L256.434 15.4465H251.4L259.647 27.7715H264.675L269.472 15.4336H264.991Z" fill="#161716"/>
<path d="M307.609 15.4336L306 19.5964H310.378L307.214 27.7568H311.664L314.835 19.5964H319.199L320.809 15.4336H307.609Z" fill="#161716"/>
<path d="M299.755 19.5946L303.692 19.5726L305.305 15.4336H289.697L284.926 27.7715H300.506L302.125 23.6087H290.997L292.557 19.5946H299.755Z" fill="#161716"/>
<path d="M338.72 15.4336H323.129L318.359 27.7715H333.927L338.72 15.4336ZM331.1 23.6105H324.431L325.991 19.5983H332.659L331.1 23.6105Z" fill="#161716"/>
<path d="M355.601 19.5965L357.206 15.4391L341.025 15.4336L336.256 27.7715H340.711L342.354 23.5406L349.287 27.7715H356.15L347.848 22.7066L355.601 19.5965ZM343.884 19.5965H349.963L342.763 22.4826L343.884 19.5965Z" fill="#161716"/>
</g>
<defs>
<clipPath id="clip0_7002_6777">
<rect width="105.804" height="24.6875" fill="white" transform="translate(251.398 14.8516)"/>
</clipPath>
</defs>
</svg>
