<svg width="376" height="88" viewBox="0 0 376 88" fill="none" xmlns="http://www.w3.org/2000/svg">
<g clip-path="url(#clip0_3362_54)">
<path d="M118.28 77.8604L109.959 69.1094H105.531V85.8952H110.884V76.4733L118.176 84.619L125.54 76.4733V85.8952H130.892V69.1094H126.465L118.28 77.8604Z" fill="#DE643B"/>
<path d="M138.311 72.1304V73.3221V85.8952H162.467V69.1094H138.311V72.1304ZM156.763 81.6823H144.015V73.3221H156.763V81.6823Z" fill="#DE643B"/>
<path d="M183.065 80.5169L175.844 69.1094H169.717L180.662 85.8952H185.298L196.204 69.1094H190.116L183.065 80.5169Z" fill="#DE643B"/>
<path d="M209.491 69.1094H203.826V85.8952H209.491V69.1094Z" fill="#DE643B"/>
<path d="M234.586 78.9217L220.913 69.1094H216.771V85.8952H222.013V76.0502L235.686 85.8952H239.828V69.1094H234.586V78.9217Z" fill="#DE643B"/>
<path d="M257.554 78.8956H264.352V81.6823H252.6V73.3221H264.75L269.704 69.1094H247.248V85.8952H269.704V76.1087H257.554V78.8956Z" fill="#DE643B"/>
<path d="M77.3385 31.4905L78.9598 27.3103H98.7279L101.033 21.3851L81.2387 21.4372L82.8665 17.2635H122.305L128.054 2.51562H72.7221L55.8125 46.2449H111.047L116.783 31.4905H77.3385Z" fill="#DE643B"/>
<path d="M48.6856 2.51562L37.5775 31.2887L18.3564 2.56125H0.515625L29.7444 46.2449H47.5656L64.5665 2.51562H48.6856Z" fill="#DE643B"/>
<path d="M199.733 2.51562L194.029 17.2701H209.545L198.333 46.1929H214.103L225.343 17.2701H240.812L246.516 2.51562H199.733Z" fill="#DE643B"/>
<path d="M171.885 17.2635L185.838 17.1854L191.555 2.51562H136.236L119.326 46.2449H174.548L180.284 31.4905H140.846L146.374 17.2635H171.885Z" fill="#DE643B"/>
<path d="M309.999 2.51562H254.738L237.834 46.2449H293.011L309.999 2.51562ZM282.99 31.497H259.355L264.882 17.2766H288.517L282.99 31.497Z" fill="#DE643B"/>
<path d="M369.828 17.2701L375.518 2.53518L318.168 2.51562L301.264 46.2449H317.053L322.876 31.2495L347.449 46.2449H371.774L342.351 28.2934L369.828 17.2701ZM328.299 17.2701H349.845L324.326 27.4993L328.299 17.2701Z" fill="#DE643B"/>
</g>
<defs>
<clipPath id="clip0_3362_54">
<rect width="375" height="87.5" fill="white" transform="translate(0.5 0.453125)"/>
</clipPath>
</defs>
</svg>
