<svg width="47" height="47" viewBox="0 0 47 47" fill="none" xmlns="http://www.w3.org/2000/svg">
<circle cx="23.3047" cy="23.0859" r="23.0703" fill="#DE643B"/>
<path d="M16.4345 32.3362C14.616 32.3362 13.1561 31.8607 12.055 30.9097C10.9539 29.9421 10.2782 28.6658 10.028 27.0809H12.7557C12.9559 28.0485 13.3814 28.8076 14.032 29.3582C14.6827 29.892 15.4585 30.159 16.3594 30.159C17.327 30.159 18.1362 29.8503 18.7869 29.233C19.4542 28.5991 19.7879 27.6147 19.7879 26.28C19.7879 24.962 19.4626 23.9694 18.8119 23.302C18.1612 22.618 17.327 22.276 16.3093 22.276C15.6253 22.276 15.0164 22.4261 14.4825 22.7264C13.9486 23.0101 13.5649 23.3854 13.3313 23.8526H10.9289L11.8048 14.0676H21.5897V16.2448H13.056L14.2072 15.6693L13.6817 22.3761L12.9559 22.2009C13.2896 21.6337 13.7818 21.1749 14.4324 20.8245C15.0998 20.4575 15.9173 20.2739 16.8849 20.2739C18.0027 20.2739 18.9954 20.5158 19.863 20.9997C20.7305 21.4835 21.4062 22.1759 21.89 23.0768C22.3738 23.9777 22.6158 25.0455 22.6158 26.28C22.6158 27.548 22.3572 28.6324 21.84 29.5333C21.3395 30.4343 20.6221 31.1266 19.6878 31.6105C18.7702 32.0943 17.6857 32.3362 16.4345 32.3362Z" fill="#FAFAFA"/>
<path d="M37.1319 29.7301C37.0331 29.7305 36.9368 29.7012 36.8565 29.6463L33.0845 27.0425L29.3126 29.6463C29.232 29.702 29.1349 29.7318 29.0354 29.7315C28.9358 29.7311 28.8389 29.7006 28.7588 29.6444C28.6786 29.5882 28.6193 29.5092 28.5894 29.4188C28.5596 29.3283 28.5606 29.2312 28.5926 29.1414L30.0637 24.9924L26.2509 22.5028C26.1684 22.4489 26.106 22.3713 26.0731 22.2813C26.0401 22.1913 26.0382 22.0937 26.0677 22.0026C26.0972 21.9115 26.1565 21.8318 26.2369 21.7751C26.3174 21.7183 26.4148 21.6876 26.5149 21.6874H31.2186L32.6382 17.5278C32.6687 17.438 32.7284 17.3597 32.8086 17.3042C32.8888 17.2487 32.9854 17.2188 33.0845 17.2188C33.1837 17.2188 33.2803 17.2487 33.3605 17.3042C33.4407 17.3597 33.5003 17.438 33.5309 17.5278L34.9504 21.6888H39.6542C39.7544 21.6887 39.852 21.7192 39.9327 21.7758C40.0134 21.8324 40.073 21.9122 40.1026 22.0033C40.1323 22.0945 40.1306 22.1923 40.0976 22.2824C40.0647 22.3726 40.0023 22.4503 39.9196 22.5042L36.1054 24.9924L37.5757 29.1403C37.5995 29.2075 37.6062 29.2791 37.5952 29.3492C37.5842 29.4193 37.5559 29.4859 37.5125 29.5435C37.4692 29.6011 37.4121 29.6481 37.3459 29.6806C37.2797 29.713 37.2064 29.73 37.1319 29.7301Z" fill="#F3F3BD"/>
</svg>
