<svg width="25" height="26" viewBox="0 0 25 26" fill="none" xmlns="http://www.w3.org/2000/svg">
<mask id="path-1-inside-1_4399_5899" fill="white">
<path d="M25 13.3398C25 10.7718 24.2091 8.26614 22.7348 6.16351C21.2604 4.06087 19.1743 2.46334 16.76 1.58816C14.3458 0.712974 11.7205 0.602612 9.24131 1.27208C6.7621 1.94155 4.54925 3.35835 2.90366 5.32983L5.80558 7.75204C6.95354 6.37674 8.49723 5.38837 10.2267 4.92135C11.9562 4.45433 13.7876 4.53131 15.4718 5.14184C17.156 5.75237 18.6113 6.86682 19.6398 8.33362C20.6683 9.80042 21.22 11.5484 21.22 13.3398H25Z"/>
</mask>
<path d="M25 13.3398C25 10.7718 24.2091 8.26614 22.7348 6.16351C21.2604 4.06087 19.1743 2.46334 16.76 1.58816C14.3458 0.712974 11.7205 0.602612 9.24131 1.27208C6.7621 1.94155 4.54925 3.35835 2.90366 5.32983L5.80558 7.75204C6.95354 6.37674 8.49723 5.38837 10.2267 4.92135C11.9562 4.45433 13.7876 4.53131 15.4718 5.14184C17.156 5.75237 18.6113 6.86682 19.6398 8.33362C20.6683 9.80042 21.22 11.5484 21.22 13.3398H25Z" stroke="#AAAA82" stroke-width="6" mask="url(#path-1-inside-1_4399_5899)"/>
<mask id="path-2-inside-2_4399_5899" fill="white">
<path d="M9.16947 25.3891C7.1485 24.8311 5.30034 23.7738 3.79508 22.3144C2.28981 20.855 1.1758 19.0404 0.555578 17.0377C-0.0646476 15.035 -0.171166 12.9084 0.245825 10.8537C0.662817 8.79901 1.58992 6.88221 2.94182 5.27971L5.79426 7.68607C4.84597 8.81014 4.19565 10.1547 3.90315 11.5959C3.61066 13.0372 3.68537 14.5289 4.12043 15.9337C4.55549 17.3385 5.33691 18.6113 6.39277 19.635C7.44864 20.6587 8.74503 21.4004 10.1626 21.7918L9.16947 25.3891Z"/>
</mask>
<path d="M9.16947 25.3891C7.1485 24.8311 5.30034 23.7738 3.79508 22.3144C2.28981 20.855 1.1758 19.0404 0.555578 17.0377C-0.0646476 15.035 -0.171166 12.9084 0.245825 10.8537C0.662817 8.79901 1.58992 6.88221 2.94182 5.27971L5.79426 7.68607C4.84597 8.81014 4.19565 10.1547 3.90315 11.5959C3.61066 13.0372 3.68537 14.5289 4.12043 15.9337C4.55549 17.3385 5.33691 18.6113 6.39277 19.635C7.44864 20.6587 8.74503 21.4004 10.1626 21.7918L9.16947 25.3891Z" stroke="#DE643B" stroke-opacity="0.1" stroke-width="6" mask="url(#path-2-inside-2_4399_5899)"/>
<mask id="path-3-inside-3_4399_5899" fill="white">
<path d="M25 13.3398C25 15.2663 24.5547 17.1668 23.6989 18.8927C22.8431 20.6187 21.5999 22.1235 20.0664 23.2897C18.533 24.4558 16.7507 25.2517 14.8588 25.6153C12.9669 25.9788 11.0166 25.9001 9.16017 25.3854L10.1578 21.7874C11.4597 22.1484 12.8275 22.2036 14.1543 21.9486C15.481 21.6937 16.7309 21.1355 17.8064 20.3177C18.8818 19.4998 19.7536 18.4445 20.3538 17.2341C20.954 16.0237 21.2663 14.6909 21.2663 13.3398H25Z"/>
</mask>
<path d="M25 13.3398C25 15.2663 24.5547 17.1668 23.6989 18.8927C22.8431 20.6187 21.5999 22.1235 20.0664 23.2897C18.533 24.4558 16.7507 25.2517 14.8588 25.6153C12.9669 25.9788 11.0166 25.9001 9.16017 25.3854L10.1578 21.7874C11.4597 22.1484 12.8275 22.2036 14.1543 21.9486C15.481 21.6937 16.7309 21.1355 17.8064 20.3177C18.8818 19.4998 19.7536 18.4445 20.3538 17.2341C20.954 16.0237 21.2663 14.6909 21.2663 13.3398H25Z" stroke="#654D76" stroke-opacity="0.1" stroke-width="6" mask="url(#path-3-inside-3_4399_5899)"/>
</svg>
