<svg width="25" height="26" viewBox="0 0 25 26" fill="none" xmlns="http://www.w3.org/2000/svg">
<mask id="path-1-inside-1_4399_5907" fill="white">
<path d="M25 13.2148C25 10.7251 24.2565 8.29205 22.8648 6.22758C21.473 4.16312 19.4965 2.56131 17.1885 1.62744C14.8805 0.693582 12.3462 0.470227 9.91049 0.986007C7.47474 1.50179 5.24851 2.7332 3.51715 4.52241L6.23354 7.15099C7.44135 5.90283 8.99437 5.04379 10.6936 4.68398C12.3927 4.32417 14.1607 4.47999 15.7707 5.13145C17.3808 5.78291 18.7596 6.90035 19.7305 8.34052C20.7013 9.78069 21.22 11.478 21.22 13.2148H25Z"/>
</mask>
<path d="M25 13.2148C25 10.7251 24.2565 8.29205 22.8648 6.22758C21.473 4.16312 19.4965 2.56131 17.1885 1.62744C14.8805 0.693582 12.3462 0.470227 9.91049 0.986007C7.47474 1.50179 5.24851 2.7332 3.51715 4.52241L6.23354 7.15099C7.44135 5.90283 8.99437 5.04379 10.6936 4.68398C12.3927 4.32417 14.1607 4.47999 15.7707 5.13145C17.3808 5.78291 18.7596 6.90035 19.7305 8.34052C20.7013 9.78069 21.22 11.478 21.22 13.2148H25Z" stroke="#AAAA82" stroke-opacity="0.25" stroke-width="6" mask="url(#path-1-inside-1_4399_5907)"/>
<mask id="path-2-inside-2_4399_5907" fill="white">
<path d="M10.2713 25.5146C8.03769 25.1098 5.95645 24.1045 4.25094 22.6065C2.54543 21.1085 1.28003 19.1743 0.590553 17.0116C-0.0989263 14.8488 -0.18646 12.5392 0.337346 10.3304C0.861151 8.12171 1.97652 6.09731 3.56376 4.4745L6.30762 7.15821C5.20774 8.28274 4.43485 9.68555 4.07187 11.2161C3.7089 12.7466 3.76956 14.3471 4.24733 15.8458C4.72511 17.3445 5.60197 18.6847 6.7838 19.7228C7.96564 20.7609 9.40784 21.4575 10.9556 21.7379L10.2713 25.5146Z"/>
</mask>
<path d="M10.2713 25.5146C8.03769 25.1098 5.95645 24.1045 4.25094 22.6065C2.54543 21.1085 1.28003 19.1743 0.590553 17.0116C-0.0989263 14.8488 -0.18646 12.5392 0.337346 10.3304C0.861151 8.12171 1.97652 6.09731 3.56376 4.4745L6.30762 7.15821C5.20774 8.28274 4.43485 9.68555 4.07187 11.2161C3.7089 12.7466 3.76956 14.3471 4.24733 15.8458C4.72511 17.3445 5.60197 18.6847 6.7838 19.7228C7.96564 20.7609 9.40784 21.4575 10.9556 21.7379L10.2713 25.5146Z" stroke="#DE643B" stroke-opacity="0.1" stroke-width="6" mask="url(#path-2-inside-2_4399_5907)"/>
<mask id="path-3-inside-3_4399_5907" fill="white">
<path d="M25 13.2148C25 15.1534 24.5491 17.0654 23.683 18.7997C22.8169 20.534 21.5593 22.0431 20.0096 23.2077C18.4598 24.3723 16.6605 25.1605 14.7537 25.51C12.8469 25.8595 10.885 25.7607 9.02294 25.2215L10.0903 21.536C11.3807 21.9097 12.7404 21.9781 14.0619 21.7359C15.3834 21.4937 16.6304 20.9474 17.7044 20.1403C18.7785 19.3332 19.65 18.2873 20.2503 17.0854C20.8505 15.8834 21.163 14.5583 21.163 13.2148H25Z"/>
</mask>
<path d="M25 13.2148C25 15.1534 24.5491 17.0654 23.683 18.7997C22.8169 20.534 21.5593 22.0431 20.0096 23.2077C18.4598 24.3723 16.6605 25.1605 14.7537 25.51C12.8469 25.8595 10.885 25.7607 9.02294 25.2215L10.0903 21.536C11.3807 21.9097 12.7404 21.9781 14.0619 21.7359C15.3834 21.4937 16.6304 20.9474 17.7044 20.1403C18.7785 19.3332 19.65 18.2873 20.2503 17.0854C20.8505 15.8834 21.163 14.5583 21.163 13.2148H25Z" stroke="#654D76" stroke-width="6" mask="url(#path-3-inside-3_4399_5907)"/>
</svg>
