<svg width="25" height="26" viewBox="0 0 25 26" fill="none" xmlns="http://www.w3.org/2000/svg">
<mask id="path-1-inside-1_4399_5903" fill="white">
<path d="M25 13.2539C25 10.6859 24.2091 8.18021 22.7348 6.07757C21.2604 3.97494 19.1743 2.37741 16.76 1.50222C14.3458 0.627037 11.7205 0.516674 9.24131 1.18614C6.7621 1.85561 4.54925 3.27242 2.90366 5.24389L5.80558 7.6661C6.95354 6.2908 8.49723 5.30243 10.2267 4.83541C11.9562 4.36839 13.7876 4.44538 15.4718 5.05591C17.156 5.66644 18.6113 6.78088 19.6398 8.24768C20.6683 9.71448 21.22 11.4625 21.22 13.2539H25Z"/>
</mask>
<path d="M25 13.2539C25 10.6859 24.2091 8.18021 22.7348 6.07757C21.2604 3.97494 19.1743 2.37741 16.76 1.50222C14.3458 0.627037 11.7205 0.516674 9.24131 1.18614C6.7621 1.85561 4.54925 3.27242 2.90366 5.24389L5.80558 7.6661C6.95354 6.2908 8.49723 5.30243 10.2267 4.83541C11.9562 4.36839 13.7876 4.44538 15.4718 5.05591C17.156 5.66644 18.6113 6.78088 19.6398 8.24768C20.6683 9.71448 21.22 11.4625 21.22 13.2539H25Z" stroke="#AAAA82" stroke-opacity="0.25" stroke-width="6" mask="url(#path-1-inside-1_4399_5903)"/>
<mask id="path-2-inside-2_4399_5903" fill="white">
<path d="M10.2713 25.5536C8.03769 25.1489 5.95645 24.1436 4.25094 22.6456C2.54543 21.1475 1.28003 19.2134 0.590553 17.0506C-0.0989263 14.8879 -0.18646 12.5782 0.337346 10.3695C0.861151 8.16077 1.97652 6.13637 3.56376 4.51356L6.30762 7.19728C5.20774 8.3218 4.43485 9.72461 4.07187 11.2551C3.7089 12.7857 3.76956 14.3862 4.24733 15.8848C4.72511 17.3835 5.60197 18.7238 6.7838 19.7619C7.96564 20.7999 9.40784 21.4965 10.9556 21.777L10.2713 25.5536Z"/>
</mask>
<path d="M10.2713 25.5536C8.03769 25.1489 5.95645 24.1436 4.25094 22.6456C2.54543 21.1475 1.28003 19.2134 0.590553 17.0506C-0.0989263 14.8879 -0.18646 12.5782 0.337346 10.3695C0.861151 8.16077 1.97652 6.13637 3.56376 4.51356L6.30762 7.19728C5.20774 8.3218 4.43485 9.72461 4.07187 11.2551C3.7089 12.7857 3.76956 14.3862 4.24733 15.8848C4.72511 17.3835 5.60197 18.7238 6.7838 19.7619C7.96564 20.7999 9.40784 21.4965 10.9556 21.777L10.2713 25.5536Z" stroke="#DE643B" stroke-width="6" mask="url(#path-2-inside-2_4399_5903)"/>
<mask id="path-3-inside-3_4399_5903" fill="white">
<path d="M25 13.2539C25 15.1925 24.5491 17.1044 23.683 18.8387C22.8169 20.573 21.5593 22.0821 20.0096 23.2467C18.4598 24.4113 16.6605 25.1996 14.7537 25.5491C12.8469 25.8986 10.885 25.7998 9.02294 25.2606L10.0903 21.575C11.3807 21.9487 12.7404 22.0172 14.0619 21.775C15.3834 21.5327 16.6304 20.9865 17.7044 20.1793C18.7785 19.3722 19.65 18.3264 20.2503 17.1244C20.8505 15.9225 21.163 14.5974 21.163 13.2539H25Z"/>
</mask>
<path d="M25 13.2539C25 15.1925 24.5491 17.1044 23.683 18.8387C22.8169 20.573 21.5593 22.0821 20.0096 23.2467C18.4598 24.4113 16.6605 25.1996 14.7537 25.5491C12.8469 25.8986 10.885 25.7998 9.02294 25.2606L10.0903 21.575C11.3807 21.9487 12.7404 22.0172 14.0619 21.775C15.3834 21.5327 16.6304 20.9865 17.7044 20.1793C18.7785 19.3722 19.65 18.3264 20.2503 17.1244C20.8505 15.9225 21.163 14.5974 21.163 13.2539H25Z" stroke="#654D76" stroke-opacity="0.1" stroke-width="6" mask="url(#path-3-inside-3_4399_5903)"/>
</svg>
