<svg width="18" height="17" viewBox="0 0 18 17" fill="none" xmlns="http://www.w3.org/2000/svg">
<path d="M9.95611 0.165088C10.5642 0.162754 11.1723 0.168866 11.7803 0.183421L11.9419 0.189255C12.1286 0.195921 12.3128 0.204255 12.5353 0.214255C13.4219 0.255921 14.0269 0.395921 14.5578 0.601755C15.1078 0.813421 15.5711 1.10009 16.0344 1.56342C16.4581 1.97976 16.786 2.48338 16.9953 3.03925C17.2011 3.57009 17.3411 4.17592 17.3828 5.06259C17.3928 5.28425 17.4011 5.46925 17.4078 5.65592L17.4128 5.81759C17.4276 6.42525 17.434 7.03308 17.4319 7.64092L17.4328 8.26259V9.35425C17.4348 9.96237 17.4284 10.5705 17.4136 11.1784L17.4086 11.3401C17.4019 11.5268 17.3936 11.7109 17.3836 11.9334C17.3419 12.8201 17.2003 13.4251 16.9953 13.9559C16.7866 14.5124 16.4587 15.0164 16.0344 15.4326C15.6177 15.8562 15.1139 16.184 14.5578 16.3934C14.0269 16.5993 13.4219 16.7393 12.5353 16.7809C12.3128 16.7909 12.1286 16.7993 11.9419 16.8059L11.7803 16.8109C11.1723 16.8257 10.5642 16.8321 9.95611 16.8301L9.33444 16.8309H8.24361C7.63549 16.833 7.02738 16.8266 6.41944 16.8118L6.25777 16.8068C6.05995 16.7996 5.86217 16.7913 5.66444 16.7818C4.77777 16.7401 4.17277 16.5984 3.64111 16.3934C3.08501 16.1845 2.5813 15.8566 2.16527 15.4326C1.74114 15.0162 1.41296 14.5122 1.20361 13.9559C0.997773 13.4251 0.857772 12.8201 0.816106 11.9334C0.806825 11.7357 0.798491 11.5379 0.791106 11.3401L0.786939 11.1784C0.771576 10.5705 0.76463 9.96238 0.766106 9.35425V7.64092C0.76378 7.03309 0.769892 6.42525 0.784439 5.81759L0.790273 5.65592C0.796939 5.46925 0.805273 5.28425 0.815273 5.06259C0.856939 4.17509 0.996939 3.57092 1.20277 3.03925C1.41225 2.4831 1.74108 1.97963 2.16611 1.56425C2.58185 1.13988 3.08524 0.811399 3.64111 0.601755C4.17277 0.395921 4.77694 0.255921 5.66444 0.214255L6.25777 0.189255L6.41944 0.185088C7.02709 0.169732 7.63493 0.162787 8.24277 0.164255L9.95611 0.165088ZM9.09944 4.33175C8.54736 4.32395 7.99924 4.42594 7.48692 4.63181C6.9746 4.83768 6.50831 5.14332 6.11514 5.53097C5.72198 5.91861 5.40977 6.38054 5.19668 6.88989C4.98358 7.39924 4.87385 7.94587 4.87385 8.498C4.87385 9.05014 4.98358 9.59677 5.19668 10.1061C5.40977 10.6155 5.72198 11.0774 6.11514 11.465C6.50831 11.8527 6.9746 12.1583 7.48692 12.3642C7.99924 12.5701 8.54736 12.6721 9.09944 12.6643C10.2045 12.6643 11.2643 12.2253 12.0457 11.4439C12.8271 10.6625 13.2661 9.60266 13.2661 8.49759C13.2661 7.39252 12.8271 6.33271 12.0457 5.55131C11.2643 4.76991 10.2045 4.33175 9.09944 4.33175ZM9.09944 5.99842C9.43153 5.9923 9.76151 6.05242 10.0701 6.17526C10.3787 6.2981 10.6597 6.48121 10.8968 6.71388C11.1338 6.94654 11.3221 7.22411 11.4506 7.53037C11.5792 7.83663 11.6454 8.16543 11.6455 8.49758C11.6456 8.82973 11.5794 9.15855 11.451 9.46485C11.3225 9.77115 11.1343 10.0488 10.8974 10.2815C10.6604 10.5143 10.3794 10.6975 10.0709 10.8204C9.76232 10.9434 9.43236 11.0036 9.10027 10.9976C8.43723 10.9976 7.80135 10.7342 7.33251 10.2654C6.86367 9.79651 6.60027 9.16063 6.60027 8.49759C6.60027 7.83455 6.86367 7.19866 7.33251 6.72982C7.80135 6.26098 8.43723 5.99759 9.10027 5.99759L9.09944 5.99842ZM13.4744 3.08175C13.2056 3.09251 12.9514 3.20688 12.7649 3.4009C12.5785 3.59491 12.4744 3.85353 12.4744 4.12259C12.4744 4.39164 12.5785 4.65026 12.7649 4.84428C12.9514 5.0383 13.2056 5.15266 13.4744 5.16342C13.7507 5.16342 14.0157 5.05367 14.211 4.85832C14.4064 4.66297 14.5161 4.39802 14.5161 4.12175C14.5161 3.84549 14.4064 3.58054 14.211 3.38519C14.0157 3.18983 13.7507 3.08009 13.4744 3.08009V3.08175Z" fill="white"/>
</svg>
