<svg width="25" height="24" viewBox="0 0 25 24" fill="none" xmlns="http://www.w3.org/2000/svg">
<path d="M17.2168 2H7.2168C4.45537 2 2.2168 4.23858 2.2168 7V17C2.2168 19.7614 4.45537 22 7.2168 22H17.2168C19.9782 22 22.2168 19.7614 22.2168 17V7C22.2168 4.23858 19.9782 2 17.2168 2Z" stroke="#FAFAFA" stroke-width="2" stroke-linecap="round" stroke-linejoin="round"/>
<path d="M16.2165 11.3703C16.3399 12.2025 16.1978 13.0525 15.8103 13.7993C15.4228 14.5461 14.8097 15.1517 14.0581 15.53C13.3066 15.9082 12.455 16.0399 11.6243 15.9062C10.7936 15.7726 10.0263 15.3804 9.43134 14.7855C8.83642 14.1905 8.44424 13.4232 8.31057 12.5925C8.17691 11.7619 8.30857 10.9102 8.68683 10.1587C9.06509 9.40716 9.67069 8.79404 10.4175 8.40654C11.1643 8.01904 12.0143 7.87689 12.8465 8.0003C13.6954 8.12619 14.4814 8.52176 15.0882 9.12861C15.695 9.73545 16.0906 10.5214 16.2165 11.3703Z" stroke="#FAFAFA" stroke-width="2" stroke-linecap="round" stroke-linejoin="round"/>
<path d="M17.7168 6.5H17.7268" stroke="#FAFAFA" stroke-width="2" stroke-linecap="round" stroke-linejoin="round"/>
</svg>
