<svg width="4" height="6" viewBox="0 0 4 6" fill="none" xmlns="http://www.w3.org/2000/svg">
<path d="M0.439995 4.94562C0.414243 4.96948 0.39411 4.99754 0.380747 5.0282C0.367383 5.05887 0.361051 5.09153 0.362111 5.12434C0.363171 5.15715 0.371603 5.18945 0.386926 5.2194C0.402249 5.24936 0.424161 5.27637 0.451413 5.29892C0.478665 5.32146 0.510723 5.33908 0.545756 5.35078C0.580789 5.36247 0.61811 5.36802 0.65559 5.36709C0.69307 5.36616 0.729975 5.35878 0.764196 5.34537C0.798417 5.33196 0.829285 5.31278 0.855038 5.28892L3.28135 3.04024C3.33146 2.99385 3.35937 2.93243 3.35937 2.86859C3.35937 2.80475 3.33146 2.74333 3.28135 2.69694L0.855037 0.448012C0.829455 0.423636 0.798593 0.403952 0.764246 0.390104C0.729899 0.376256 0.692751 0.36852 0.654959 0.367345C0.617167 0.366169 0.579485 0.371579 0.544102 0.383258C0.508719 0.394938 0.476339 0.412655 0.448845 0.43538C0.42135 0.458105 0.399288 0.485386 0.383941 0.515637C0.368594 0.545889 0.360266 0.578508 0.359443 0.6116C0.35862 0.644693 0.365316 0.677598 0.379145 0.708406C0.392973 0.739213 0.413657 0.767309 0.439995 0.79106L2.68134 2.86859L0.439995 4.94562Z" fill="#2D1D38"/>
</svg>
