<svg width="189" height="41" viewBox="0 0 189 41" fill="none" xmlns="http://www.w3.org/2000/svg">
<g clip-path="url(#clip0_5342_8082)">
<path d="M67.0464 23.554L65.9233 26.7325H65.8297C65.6425 26.0158 65.2994 24.9251 64.7378 23.6163L58.7167 8.50263H52.8203V32.591H56.72V17.7266C56.72 16.7918 56.72 15.7323 56.6888 14.4234C56.6576 13.769 56.5952 13.2704 56.564 12.8965H56.6576C56.8448 13.8314 57.0632 14.5169 57.2192 14.9532L64.457 32.5287H67.2024L74.3779 14.7974C74.5339 14.3923 74.6899 13.5821 74.8459 12.8965H74.9394C74.8459 14.6727 74.7835 16.262 74.7523 17.228V32.4975H78.9016V8.44031H73.2236L67.0464 23.554ZM82.8325 15.2337H86.8881V32.4975H82.8325V15.2337ZM84.8915 7.94171C84.2052 7.94171 83.6436 8.19101 83.1756 8.62728C82.7077 9.06355 82.4581 9.62447 82.4581 10.31C82.4581 10.9644 82.7077 11.5254 83.1756 11.9616C83.6436 12.3979 84.2052 12.616 84.8915 12.616C85.5779 12.616 86.1706 12.3667 86.6074 11.9616C87.0753 11.5254 87.3249 10.9644 87.3249 10.31C87.3249 9.65563 87.0753 9.09471 86.6074 8.62728C86.2018 8.19101 85.609 7.94171 84.8915 7.94171ZM101.27 15.0779C100.522 14.922 99.7416 14.8286 98.9928 14.8286C97.1522 14.8286 95.4675 15.2337 94.0636 16.0439C92.6597 16.8541 91.5366 17.9759 90.8191 19.3782C90.0703 20.8117 89.6959 22.4633 89.6959 24.3642C89.6959 26.0158 90.0703 27.4804 90.7879 28.8204C91.5054 30.1292 92.5037 31.1887 93.8452 31.9054C95.1243 32.6222 96.6218 32.9961 98.3065 32.9961C100.241 32.9961 101.894 32.591 103.205 31.8431L103.236 31.8119V28.0725L103.08 28.1971C102.487 28.6334 101.801 29.0073 101.114 29.2255C100.397 29.4748 99.7416 29.5994 99.18 29.5994C97.5578 29.5994 96.2786 29.132 95.3739 28.1036C94.438 27.1065 93.97 25.7353 93.97 24.0214C93.97 22.2452 94.438 20.8429 95.4051 19.8145C96.3722 18.7861 97.6513 18.2564 99.2112 18.2564C100.522 18.2564 101.863 18.6927 103.08 19.5652L103.236 19.6899V15.7323L103.205 15.7011C102.674 15.483 102.081 15.2337 101.27 15.0779ZM114.654 14.9532C113.656 14.9532 112.72 15.2648 111.909 15.9192C111.222 16.4801 110.754 17.2904 110.349 18.2564H110.318V15.2337H106.262V32.4975H110.318V23.6786C110.318 22.1828 110.63 20.9363 111.316 20.0326C112.002 19.0978 112.876 18.6303 113.937 18.6303C114.311 18.6303 114.685 18.7238 115.153 18.7862C115.59 18.9108 115.902 19.0354 116.12 19.1913L116.276 19.3159V15.2648L116.183 15.2337C115.902 15.0467 115.34 14.9532 114.654 14.9532ZM125.698 14.8597C122.859 14.8597 120.582 15.7011 118.991 17.3527C117.368 19.0043 116.588 21.2791 116.588 24.146C116.588 26.826 117.399 29.0073 118.959 30.5966C120.519 32.1547 122.641 32.9649 125.292 32.9649C128.069 32.9649 130.284 32.1236 131.875 30.4408C133.497 28.7581 134.277 26.5144 134.277 23.7409C134.277 20.9987 133.529 18.8173 132 17.228C130.534 15.6388 128.381 14.8597 125.698 14.8597ZM128.943 28.1348C128.194 29.1008 127.008 29.5683 125.542 29.5683C124.076 29.5683 122.89 29.1008 122.048 28.0725C121.206 27.1065 120.8 25.7042 120.8 23.9279C120.8 22.0893 121.237 20.687 122.048 19.6899C122.89 18.6927 124.045 18.1941 125.511 18.1941C126.946 18.1941 128.069 18.6615 128.88 19.6275C129.691 20.5936 130.128 21.9959 130.128 23.8344C130.066 25.7042 129.723 27.1688 128.943 28.1348ZM143.325 22.401C142.046 21.8712 141.234 21.4661 140.86 21.1233C140.548 20.8117 140.392 20.3754 140.392 19.8145C140.392 19.3471 140.579 18.8796 141.047 18.568C141.515 18.2564 142.046 18.1006 142.826 18.1006C143.512 18.1006 144.229 18.2252 144.916 18.4122C145.602 18.5992 146.226 18.8796 146.725 19.2536L146.881 19.3782V15.5764L146.788 15.5453C146.32 15.3583 145.696 15.1713 144.947 15.0155C144.198 14.8909 143.512 14.8286 142.95 14.8286C141.016 14.8286 139.425 15.296 138.177 16.3243C136.929 17.2904 136.336 18.5992 136.336 20.1261C136.336 20.9363 136.461 21.6531 136.742 22.2452C137.023 22.8372 137.428 23.3982 137.99 23.8656C138.551 24.3019 139.363 24.8005 140.486 25.2679C141.422 25.673 142.139 25.9846 142.576 26.2339C143.013 26.4832 143.294 26.7637 143.512 26.9818C143.668 27.2311 143.761 27.5427 143.761 27.9478C143.761 29.1008 142.888 29.6618 141.11 29.6618C140.423 29.6618 139.706 29.5371 138.863 29.2566C138.021 28.9762 137.241 28.5711 136.586 28.1036L136.43 27.979V31.9366L136.524 31.9678C137.116 32.2482 137.834 32.4352 138.707 32.6533C139.581 32.8091 140.361 32.9338 141.047 32.9338C143.138 32.9338 144.853 32.4663 146.07 31.438C147.318 30.4408 147.973 29.1632 147.973 27.5116C147.973 26.3586 147.661 25.3302 146.975 24.5512C146.07 23.8033 144.947 23.0242 143.325 22.401ZM158.674 14.8597C155.835 14.8597 153.558 15.7011 151.966 17.3527C150.375 19.0043 149.564 21.2791 149.564 24.146C149.564 26.826 150.375 29.0073 151.935 30.5966C153.495 32.1547 155.617 32.9649 158.268 32.9649C161.045 32.9649 163.26 32.1236 164.851 30.4408C166.473 28.7581 167.253 26.5144 167.253 23.7409C167.253 20.9987 166.505 18.8173 164.976 17.228C163.51 15.6388 161.357 14.8597 158.674 14.8597ZM161.887 28.1348C161.139 29.1008 159.953 29.5683 158.487 29.5683C156.989 29.5683 155.835 29.1008 154.993 28.0725C154.15 27.1065 153.745 25.7042 153.745 23.9279C153.745 22.0893 154.182 20.687 154.993 19.6899C155.835 18.6927 156.989 18.1941 158.456 18.1941C159.859 18.1941 161.014 18.6615 161.825 19.6275C162.636 20.5936 163.073 21.9959 163.073 23.8344C163.073 25.7042 162.667 27.1688 161.887 28.1348ZM188.936 18.568V15.2337H184.849V10.1231L184.724 10.1542L180.855 11.3072L180.762 11.3384V15.2337H174.647V13.0523C174.647 12.0551 174.897 11.2761 175.334 10.7775C175.77 10.2789 176.425 10.0296 177.237 10.0296C177.798 10.0296 178.391 10.1542 179.046 10.4347L179.202 10.5282V7.00685L179.108 6.97568C178.547 6.78871 177.798 6.66406 176.831 6.66406C175.614 6.66406 174.554 6.94452 173.586 7.41195C172.619 7.94171 171.902 8.65844 171.371 9.62447C170.841 10.5593 170.56 11.6188 170.56 12.8342V15.2337H167.721V18.5369H170.56V32.4975H174.647V18.568H180.762V27.4492C180.762 31.0952 182.478 32.9338 185.91 32.9338C186.471 32.9338 187.064 32.8403 187.625 32.7468C188.218 32.6222 188.655 32.4663 188.904 32.3417L188.936 32.3105V28.9762L188.78 29.1008C188.53 29.2566 188.312 29.3813 187.937 29.4748C187.625 29.5683 187.345 29.5994 187.126 29.5994C186.315 29.5994 185.754 29.4125 185.348 28.945C184.974 28.5088 184.786 27.792 184.786 26.7325V18.568H188.936Z" fill="black"/>
<path d="M0.53125 0.398438H19.6554V19.5009H0.53125V0.398438Z" fill="black"/>
<path d="M21.6484 0.398438H40.7726V19.5009H21.6484V0.398438Z" fill="black"/>
<path d="M0.53125 21.4961H19.6554V40.5985H0.53125V21.4961Z" fill="black"/>
<path d="M21.6484 21.4961H40.7726V40.5985H21.6484V21.4961Z" fill="black"/>
</g>
<defs>
<clipPath id="clip0_5342_8082">
<rect width="188.434" height="40.1992" fill="white" transform="translate(0.53125 0.398438)"/>
</clipPath>
</defs>
</svg>
