<svg width="17" height="19" viewBox="0 0 17 19" fill="none" xmlns="http://www.w3.org/2000/svg">
<path d="M12.2212 18.8772C11.72 18.975 11.1885 18.8903 10.7271 18.6179C8.2076 17.1305 5.96487 15.0937 4.24386 12.7294C2.49892 10.3337 1.28322 7.64803 0.631522 4.74941C0.444601 3.92017 0.764629 3.06377 1.44716 2.56638L3.564 1.02476C4.02143 0.693287 4.58001 0.558276 5.13617 0.645335C5.69336 0.733083 6.18341 1.03309 6.51559 1.48951L8.17388 3.76754C8.50605 4.22394 8.64106 4.78252 8.55331 5.33971C8.46556 5.8969 8.16556 6.38695 7.70913 6.71913L6.39171 7.67773C6.66096 8.58868 7.08876 9.45704 7.65889 10.2411C8.2263 11.0203 8.91819 11.6927 9.71548 12.2386L11.0255 11.2743C11.9666 10.5892 13.2915 10.7962 13.9779 11.7388L15.6362 14.0169C15.9854 14.496 16.107 15.0778 15.9796 15.6526C15.8528 16.221 15.4976 16.7317 14.9509 17.1299L13.0523 18.5123C12.7993 18.6962 12.5143 18.8173 12.2188 18.875L12.2212 18.8772ZM4.67292 2.04443C4.5744 2.06365 4.47992 2.10361 4.39433 2.16607L2.27749 3.70768C2.04963 3.87325 1.94364 4.16217 2.0062 4.44151C2.61581 7.15198 3.75222 9.66114 5.38342 11.9015C6.99262 14.112 9.08827 16.015 11.4436 17.4061C11.692 17.5523 11.9983 17.541 12.2255 17.3764L14.1241 15.994C14.3857 15.8039 14.5573 15.5749 14.6067 15.35C14.6457 15.1728 14.6092 14.9996 14.4999 14.8487L12.8416 12.5707C12.7311 12.4182 12.5682 12.319 12.382 12.2889C12.1958 12.2589 12.01 12.3041 11.8577 12.4154L10.5411 13.3739C10.0587 13.7246 9.40886 13.7365 8.92208 13.4027C7.99207 12.7651 7.18517 11.9815 6.52322 11.0717C5.85854 10.1571 5.35871 9.14492 5.039 8.06265C4.87396 7.50187 5.08491 6.89104 5.56557 6.54068L6.88283 5.58121C7.19715 5.35302 7.26691 4.91058 7.03716 4.59748L5.37887 2.31945C5.2133 2.0916 4.93367 1.99185 4.67356 2.0426L4.67292 2.04443Z" fill="#DE643B"/>
</svg>
