<svg width="11" height="12" viewBox="0 0 11 12" fill="none" xmlns="http://www.w3.org/2000/svg">
<path d="M10.7955 9.39328L10.7033 0.617358L2.33945 0.520595C2.25221 0.507445 2.16361 0.51407 2.07966 0.540023C1.9957 0.565975 1.91835 0.610649 1.85283 0.671019C1.78731 0.731389 1.73515 0.806046 1.6999 0.889937C1.66464 0.973827 1.6471 1.06499 1.64847 1.15726C1.64984 1.24953 1.67008 1.34074 1.70783 1.42473C1.74558 1.50872 1.79995 1.58352 1.86727 1.64407C1.93458 1.70462 2.01327 1.7495 2.098 1.77568C2.18273 1.80186 2.27152 1.80873 2.35837 1.79582L8.6259 1.87859L0.393023 10.5171C0.278883 10.6369 0.215531 10.8001 0.216904 10.9709C0.218277 11.1417 0.284261 11.3061 0.400342 11.4279C0.516423 11.5497 0.673092 11.619 0.835883 11.6204C0.998674 11.6218 1.15425 11.5554 1.26839 11.4356L9.50127 2.79708L9.58016 9.37342C9.5821 9.54433 9.64868 9.70857 9.76522 9.83002C9.88177 9.95146 10.0388 10.0202 10.2016 10.021C10.3645 10.0218 10.5199 9.95474 10.6337 9.83448C10.7475 9.71422 10.8104 9.55064 10.8084 9.37973L10.7955 9.39328Z" fill="#2D1D38"/>
</svg>
