<svg width="14" height="18" viewBox="0 0 14 18" fill="none" xmlns="http://www.w3.org/2000/svg">
<path d="M7 0C5.14416 0.00211504 3.36495 0.715248 2.05267 1.98297C0.740394 3.25068 0.00219378 4.96947 4.39357e-06 6.76229C-0.00170191 8.22731 0.493636 9.6525 1.41019 10.8197C1.41019 10.8197 1.60109 11.0625 1.63228 11.0975L7 17.2131L12.3703 11.0945C12.3983 11.0619 12.5898 10.8197 12.5898 10.8197L12.5905 10.8178C13.5064 9.65108 14.0015 8.22661 14 6.76229C13.9978 4.96947 13.2596 3.25068 11.9473 1.98297C10.635 0.715248 8.85584 0.00211504 7 0ZM7 9.22131C6.49656 9.22131 6.00442 9.07709 5.58582 8.80689C5.16723 8.53669 4.84097 8.15264 4.64831 7.70332C4.45565 7.25399 4.40524 6.75957 4.50346 6.28256C4.60167 5.80556 4.84411 5.36741 5.20009 5.02351C5.55608 4.67961 6.00964 4.44541 6.50341 4.35053C6.99718 4.25564 7.50898 4.30434 7.9741 4.49046C8.43922 4.67658 8.83677 4.99175 9.11647 5.39614C9.39617 5.80052 9.54545 6.27595 9.54545 6.76229C9.54461 7.41421 9.27616 8.0392 8.79898 8.50018C8.3218 8.96116 7.67484 9.2205 7 9.22131Z" fill="#2D1D38"/>
</svg>
