<svg width="17" height="13" viewBox="0 0 17 13" fill="none" xmlns="http://www.w3.org/2000/svg">
<path d="M13.5768 0.5C14.3434 0.5 14.8232 1.32926 14.441 1.99389L14.15 2.5C13.6384 3.38979 14.3269 4.57159 15.18 5.14219C15.4058 5.29317 15.6208 5.47077 15.825 5.675C16.6083 6.45833 17 7.4 17 8.5C17 9.6 16.6083 10.5417 15.825 11.325C15.0417 12.1083 14.1 12.5 13 12.5C11.9 12.5 10.9583 12.1083 10.175 11.325C9.39167 10.5417 9 9.6 9 8.5C9 8.11667 9.04567 7.76233 9.137 7.437C9.22833 7.11167 9.366 6.79933 9.55 6.5L12.7125 0.999995C12.8904 0.690682 13.22 0.5 13.5768 0.5ZM4.57676 0.499999C5.34342 0.499999 5.82318 1.32926 5.44102 1.99389L5.15 2.5C4.63837 3.38979 5.32686 4.57158 6.18004 5.14219C6.40579 5.29317 6.62077 5.47077 6.825 5.675C7.60833 6.45833 8 7.4 8 8.5C8 9.6 7.60833 10.5417 6.825 11.325C6.04167 12.1083 5.1 12.5 4 12.5C2.9 12.5 1.95833 12.1083 1.175 11.325C0.391667 10.5417 2.53526e-07 9.6 3.49691e-07 8.5C3.83203e-07 8.11667 0.0456662 7.76233 0.137 7.437C0.228333 7.11167 0.366 6.79933 0.55 6.5L3.7125 0.999994C3.89036 0.690681 4.21996 0.499999 4.57676 0.499999Z" fill="#DE643B"/>
</svg>
