<svg width="10" height="148" viewBox="0 0 10 148" fill="none" xmlns="http://www.w3.org/2000/svg">
<path d="M9.51844 143.973C9.51844 144.653 9.39444 145.317 9.14644 145.965C8.89044 146.613 8.53044 147.189 8.06644 147.693L6.81844 146.697C7.24244 146.209 7.55444 145.741 7.75444 145.293C7.94644 144.837 8.04244 144.357 8.04244 143.853C8.04244 143.501 8.00244 143.197 7.92244 142.941C7.83444 142.685 7.71044 142.489 7.55044 142.353C7.39044 142.209 7.20244 142.137 6.98644 142.137C6.69844 142.137 6.47844 142.241 6.32644 142.449C6.16644 142.657 6.04244 143.013 5.95444 143.517L5.66644 145.185C5.54644 145.897 5.29444 146.441 4.91044 146.817C4.52644 147.185 4.03044 147.369 3.42244 147.369C2.90244 147.369 2.45044 147.237 2.06644 146.973C1.68244 146.701 1.39044 146.321 1.19044 145.833C0.982437 145.337 0.878437 144.749 0.878437 144.069C0.878437 143.453 0.982437 142.841 1.19044 142.233C1.39844 141.617 1.68644 141.073 2.05444 140.601L3.35044 141.537C2.67844 142.417 2.34244 143.301 2.34244 144.189C2.34244 144.501 2.38244 144.773 2.46244 145.005C2.54244 145.237 2.65444 145.417 2.79844 145.545C2.93444 145.665 3.09844 145.725 3.29044 145.725C3.54644 145.725 3.74644 145.633 3.89044 145.449C4.02644 145.265 4.13044 144.957 4.20244 144.525L4.46644 142.941C4.60244 142.101 4.87044 141.473 5.27044 141.057C5.66244 140.641 6.18244 140.433 6.83044 140.433C7.37444 140.433 7.85044 140.577 8.25844 140.865C8.65844 141.153 8.97044 141.565 9.19444 142.101C9.41044 142.629 9.51844 143.253 9.51844 143.973ZM9.39844 137.962H0.998437L0.998437 131.506H2.51044V136.222H4.43044V133.114H5.89444V136.222H7.88644V131.458H9.39844L9.39844 137.962ZM9.39844 128.788H0.998437L0.998437 124.684C0.998437 124.116 1.11044 123.616 1.33444 123.184C1.55044 122.744 1.85444 122.4 2.24644 122.152C2.63844 121.904 3.09044 121.78 3.60244 121.78C4.13844 121.78 4.61044 121.932 5.01844 122.236C5.42644 122.532 5.73044 122.928 5.93044 123.424L9.39844 121.564V123.508L6.18244 125.152L6.18244 127.048H9.39844V128.788ZM4.75444 127.048V124.84C4.75444 124.448 4.65044 124.136 4.44244 123.904C4.23444 123.664 3.96244 123.544 3.62644 123.544C3.29044 123.544 3.01844 123.664 2.81044 123.904C2.60244 124.136 2.49844 124.448 2.49844 124.84V127.048H4.75444ZM9.39844 116.775L0.998437 120.183L0.998437 118.299L7.61044 115.731L0.998437 113.103L0.998437 111.303L9.39844 114.759V116.775ZM9.39844 109.15H0.998437V107.41H9.39844V109.15ZM9.51844 100.3C9.51844 100.924 9.41044 101.508 9.19444 102.052C8.97044 102.596 8.66244 103.072 8.27044 103.48C7.87844 103.88 7.42244 104.196 6.90244 104.428C6.37444 104.652 5.80644 104.764 5.19844 104.764C4.58244 104.764 4.01444 104.652 3.49444 104.428C2.96644 104.196 2.50644 103.876 2.11444 103.468C1.72244 103.06 1.41844 102.588 1.20244 102.052C0.978437 101.508 0.866437 100.924 0.866437 100.3C0.866437 99.8365 0.930437 99.3885 1.05844 98.9565C1.18644 98.5245 1.36644 98.1245 1.59844 97.7565C1.83044 97.3805 2.11044 97.0605 2.43844 96.7965L3.60244 97.9725C3.22644 98.2765 2.94244 98.6285 2.75044 99.0285C2.55844 99.4205 2.46244 99.8445 2.46244 100.3C2.46244 100.676 2.53444 101.028 2.67844 101.356C2.81444 101.684 3.00644 101.968 3.25444 102.208C3.49444 102.448 3.78244 102.636 4.11844 102.772C4.44644 102.908 4.80644 102.976 5.19844 102.976C5.58244 102.976 5.94244 102.908 6.27844 102.772C6.60644 102.636 6.89444 102.444 7.14244 102.196C7.38244 101.948 7.57044 101.66 7.70644 101.332C7.84244 100.996 7.91044 100.632 7.91044 100.24C7.91044 99.8005 7.81844 99.3885 7.63444 99.0045C7.45044 98.6205 7.18644 98.2805 6.84244 97.9845L7.97044 96.8445C8.29044 97.1085 8.56644 97.4245 8.79844 97.7925C9.03044 98.1605 9.21044 98.5605 9.33844 98.9925C9.45844 99.4165 9.51844 99.8525 9.51844 100.3ZM9.39844 94.3872H0.998437L0.998437 87.9312H2.51044V92.6472H4.43044V89.5392H5.89444V92.6472H7.88644V87.8832H9.39844V94.3872ZM9.51844 82.2128C9.51844 82.8928 9.39444 83.5568 9.14644 84.2048C8.89044 84.8528 8.53044 85.4288 8.06644 85.9328L6.81844 84.9368C7.24244 84.4488 7.55444 83.9808 7.75444 83.5328C7.94644 83.0768 8.04244 82.5968 8.04244 82.0928C8.04244 81.7408 8.00244 81.4368 7.92244 81.1808C7.83444 80.9248 7.71044 80.7288 7.55044 80.5928C7.39044 80.4488 7.20244 80.3768 6.98644 80.3768C6.69844 80.3768 6.47844 80.4808 6.32644 80.6888C6.16644 80.8968 6.04244 81.2528 5.95444 81.7568L5.66644 83.4248C5.54644 84.1368 5.29444 84.6808 4.91044 85.0568C4.52644 85.4248 4.03044 85.6088 3.42244 85.6088C2.90244 85.6088 2.45044 85.4768 2.06644 85.2128C1.68244 84.9408 1.39044 84.5608 1.19044 84.0728C0.982437 83.5768 0.878437 82.9888 0.878437 82.3088C0.878437 81.6928 0.982437 81.0808 1.19044 80.4728C1.39844 79.8568 1.68644 79.3128 2.05444 78.8408L3.35044 79.7768C2.67844 80.6568 2.34244 81.5408 2.34244 82.4288C2.34244 82.7408 2.38244 83.0128 2.46244 83.2448C2.54244 83.4768 2.65444 83.6568 2.79844 83.7848C2.93444 83.9048 3.09844 83.9648 3.29044 83.9648C3.54644 83.9648 3.74644 83.8728 3.89044 83.6888C4.02644 83.5048 4.13044 83.1968 4.20244 82.7648L4.46644 81.1808C4.60244 80.3408 4.87044 79.7128 5.27044 79.2968C5.66244 78.8808 6.18244 78.6728 6.83044 78.6728C7.37444 78.6728 7.85044 78.8168 8.25844 79.1048C8.65844 79.3928 8.97044 79.8048 9.19444 80.3408C9.41044 80.8688 9.51844 81.4928 9.51844 82.2128ZM9.39844 72.3485H0.998437L0.998437 68.4005C0.998437 67.8325 1.09444 67.3365 1.28644 66.9125C1.47844 66.4805 1.75044 66.1485 2.10244 65.9165C2.44644 65.6765 2.84644 65.5565 3.30244 65.5565C3.67044 65.5565 4.01044 65.6525 4.32244 65.8445C4.62644 66.0285 4.87444 66.2805 5.06644 66.6005C5.25844 66.1925 5.51844 65.8685 5.84644 65.6285C6.17444 65.3885 6.54644 65.2685 6.96244 65.2685C7.44244 65.2685 7.86644 65.3925 8.23444 65.6405C8.60244 65.8805 8.89044 66.2245 9.09844 66.6725C9.29844 67.1125 9.39844 67.6245 9.39844 68.2085V72.3485ZM4.43044 70.6085V68.5085C4.43044 68.1325 4.34244 67.8365 4.16644 67.6205C3.98244 67.3965 3.73844 67.2845 3.43444 67.2845C3.13044 67.2845 2.89044 67.3965 2.71444 67.6205C2.53044 67.8365 2.43844 68.1325 2.43844 68.5085L2.43844 70.6085H4.43044ZM7.95844 70.6085V68.3405C7.95844 67.9405 7.86244 67.6205 7.67044 67.3805C7.47044 67.1405 7.20644 67.0205 6.87844 67.0205C6.54244 67.0205 6.27844 67.1405 6.08644 67.3805C5.88644 67.6205 5.78644 67.9405 5.78644 68.3405V70.6085H7.95844ZM9.39844 60.5466H6.18244L0.998437 63.9786L0.998437 61.9746L4.64644 59.6226L0.998437 57.2586L0.998437 55.3626L6.19444 58.8066H9.39844V60.5466ZM9.39844 49.3839H0.998437L0.998437 47.1519L5.52244 44.8479L0.998437 42.5439L0.998437 40.3119H9.39844V41.9559H3.21844L8.79844 44.8719L3.19444 47.7759H9.39844V49.3839ZM9.53044 33.2459C9.53044 33.8699 9.42244 34.4499 9.20644 34.9859C8.98244 35.5219 8.67444 35.9939 8.28244 36.4019C7.88244 36.8019 7.42244 37.1179 6.90244 37.3499C6.37444 37.5739 5.80644 37.6859 5.19844 37.6859C4.59044 37.6859 4.02644 37.5739 3.50644 37.3499C2.97844 37.1179 2.51844 36.8019 2.12644 36.4019C1.72644 35.9939 1.41844 35.5219 1.20244 34.9859C0.978437 34.4499 0.866437 33.8699 0.866437 33.2459C0.866437 32.6219 0.978437 32.0419 1.20244 31.5059C1.41844 30.9619 1.72644 30.4899 2.12644 30.0899C2.51844 29.6819 2.97844 29.3659 3.50644 29.1419C4.02644 28.9179 4.59044 28.8059 5.19844 28.8059C5.80644 28.8059 6.37444 28.9179 6.90244 29.1419C7.42244 29.3659 7.88244 29.6819 8.28244 30.0899C8.67444 30.4899 8.98244 30.9619 9.20644 31.5059C9.42244 32.0419 9.53044 32.6219 9.53044 33.2459ZM7.93444 33.2459C7.93444 32.8619 7.86644 32.5099 7.73044 32.1899C7.58644 31.8699 7.39444 31.5899 7.15444 31.3499C6.90644 31.1099 6.61444 30.9219 6.27844 30.7859C5.94244 30.6499 5.58244 30.5819 5.19844 30.5819C4.80644 30.5819 4.44644 30.6499 4.11844 30.7859C3.78244 30.9219 3.49444 31.1099 3.25444 31.3499C3.00644 31.5899 2.81444 31.8699 2.67844 32.1899C2.53444 32.5099 2.46244 32.8619 2.46244 33.2459C2.46244 33.6219 2.53444 33.9699 2.67844 34.2899C2.81444 34.6099 3.00644 34.8899 3.25444 35.1299C3.49444 35.3699 3.78244 35.5579 4.11844 35.6939C4.44644 35.8299 4.80244 35.8979 5.18644 35.8979C5.57844 35.8979 5.94244 35.8299 6.27844 35.6939C6.61444 35.5579 6.90644 35.3699 7.15444 35.1299C7.39444 34.8899 7.58644 34.6099 7.73044 34.2899C7.86644 33.9699 7.93444 33.6219 7.93444 33.2459ZM9.39844 24.0249L0.998437 27.4329L0.998437 25.5489L7.61044 22.9809L0.998437 20.3529L0.998437 18.5529L9.39844 22.0089V24.0249ZM9.39844 16.3999H0.998437L0.998437 9.94385H2.51044L2.51044 14.6599H4.43044L4.43044 11.5519H5.89444V14.6599H7.88644L7.88644 9.89585H9.39844V16.3999ZM9.51844 4.22548C9.51844 4.90548 9.39444 5.56948 9.14644 6.21748C8.89044 6.86548 8.53044 7.44148 8.06644 7.94548L6.81844 6.94948C7.24244 6.46148 7.55444 5.99348 7.75444 5.54548C7.94644 5.08948 8.04244 4.60948 8.04244 4.10548C8.04244 3.75348 8.00244 3.44948 7.92244 3.19348C7.83444 2.93748 7.71044 2.74148 7.55044 2.60548C7.39044 2.46148 7.20244 2.38948 6.98644 2.38948C6.69844 2.38948 6.47844 2.49348 6.32644 2.70148C6.16644 2.90948 6.04244 3.26548 5.95444 3.76948L5.66644 5.43748C5.54644 6.14948 5.29444 6.69348 4.91044 7.06948C4.52644 7.43748 4.03044 7.62148 3.42244 7.62148C2.90244 7.62148 2.45044 7.48948 2.06644 7.22548C1.68244 6.95348 1.39044 6.57348 1.19044 6.08548C0.982437 5.58948 0.878437 5.00148 0.878437 4.32148C0.878437 3.70548 0.982437 3.09348 1.19044 2.48548C1.39844 1.86948 1.68644 1.32548 2.05444 0.853475L3.35044 1.78948C2.67844 2.66948 2.34244 3.55348 2.34244 4.44148C2.34244 4.75348 2.38244 5.02548 2.46244 5.25748C2.54244 5.48948 2.65444 5.66948 2.79844 5.79748C2.93444 5.91748 3.09844 5.97748 3.29044 5.97748C3.54644 5.97748 3.74644 5.88548 3.89044 5.70148C4.02644 5.51748 4.13044 5.20948 4.20244 4.77748L4.46644 3.19348C4.60244 2.35348 4.87044 1.72548 5.27044 1.30948C5.66244 0.893475 6.18244 0.685475 6.83044 0.685475C7.37444 0.685475 7.85044 0.829475 8.25844 1.11748C8.65844 1.40548 8.97044 1.81748 9.19444 2.35348C9.41044 2.88148 9.51844 3.50548 9.51844 4.22548Z" fill="#2D1D38"/>
</svg>
