<svg width="21" height="21" viewBox="0 0 21 21" fill="none" xmlns="http://www.w3.org/2000/svg">
<path d="M11.3819 2.39165C11.99 2.38932 12.5981 2.39543 13.2061 2.40998L13.3677 2.41582C13.5544 2.42248 13.7386 2.43082 13.9611 2.44082C14.8477 2.48248 15.4527 2.62248 15.9836 2.82832C16.5336 3.03998 16.9969 3.32665 17.4602 3.78998C17.8839 4.20632 18.2117 4.70994 18.4211 5.26582C18.6269 5.79665 18.7669 6.40248 18.8086 7.28915C18.8186 7.51082 18.8269 7.69582 18.8336 7.88248L18.8386 8.04415C18.8534 8.65181 18.8598 9.25965 18.8577 9.86748L18.8586 10.4892V11.5808C18.8606 12.1889 18.8542 12.797 18.8394 13.405L18.8344 13.5667C18.8277 13.7533 18.8194 13.9375 18.8094 14.16C18.7677 15.0467 18.6261 15.6517 18.4211 16.1825C18.2124 16.739 17.8845 17.243 17.4602 17.6592C17.0435 18.0828 16.5396 18.4106 15.9836 18.62C15.4527 18.8258 14.8477 18.9658 13.9611 19.0075C13.7386 19.0175 13.5544 19.0258 13.3677 19.0325L13.2061 19.0375C12.5981 19.0523 11.99 19.0587 11.3819 19.0567L10.7602 19.0575H9.66939C9.06127 19.0595 8.45316 19.0531 7.84522 19.0383L7.68355 19.0333C7.48573 19.0261 7.28795 19.0178 7.09022 19.0083C6.20355 18.9667 5.59855 18.825 5.06689 18.62C4.51079 18.4111 4.00709 18.0832 3.59105 17.6592C3.16692 17.2427 2.83874 16.7388 2.62939 16.1825C2.42355 15.6517 2.28355 15.0467 2.24189 14.16C2.23261 13.9622 2.22427 13.7645 2.21689 13.5667L2.21272 13.405C2.19736 12.7971 2.19041 12.1889 2.19189 11.5808V9.86748C2.18956 9.25965 2.19567 8.65181 2.21022 8.04415L2.21605 7.88248C2.22272 7.69582 2.23105 7.51082 2.24105 7.28915C2.28272 6.40165 2.42272 5.79748 2.62855 5.26582C2.83803 4.70967 3.16686 4.20619 3.59189 3.79082C4.00763 3.36644 4.51102 3.03796 5.06689 2.82832C5.59855 2.62248 6.20272 2.48248 7.09022 2.44082L7.68355 2.41582L7.84522 2.41165C8.45287 2.39629 9.06071 2.38935 9.66855 2.39082L11.3819 2.39165ZM10.5252 6.55832C9.97314 6.55051 9.42502 6.6525 8.9127 6.85837C8.40038 7.06424 7.93409 7.36988 7.54093 7.75753C7.14776 8.14518 6.83555 8.6071 6.62246 9.11645C6.40937 9.62581 6.29963 10.1724 6.29963 10.7246C6.29963 11.2767 6.40937 11.8233 6.62246 12.3327C6.83555 12.842 7.14776 13.304 7.54093 13.6916C7.93409 14.0793 8.40038 14.3849 8.9127 14.5908C9.42502 14.7966 9.97314 14.8986 10.5252 14.8908C11.6303 14.8908 12.6901 14.4518 13.4715 13.6704C14.2529 12.889 14.6919 11.8292 14.6919 10.7242C14.6919 9.61908 14.2529 8.55927 13.4715 7.77787C12.6901 6.99647 11.6303 6.55832 10.5252 6.55832ZM10.5252 8.22498C10.8573 8.21887 11.1873 8.27898 11.4959 8.40182C11.8045 8.52466 12.0855 8.70777 12.3225 8.94044C12.5596 9.17311 12.7479 9.45068 12.8764 9.75694C13.005 10.0632 13.0712 10.392 13.0713 10.7241C13.0713 11.0563 13.0052 11.3851 12.8767 11.6914C12.7483 11.9977 12.5601 12.2754 12.3231 12.5081C12.0862 12.7408 11.8052 12.924 11.4967 13.047C11.1881 13.1699 10.8581 13.2302 10.5261 13.2242C9.86301 13.2242 9.22713 12.9608 8.75829 12.4919C8.28945 12.0231 8.02605 11.3872 8.02605 10.7242C8.02605 10.0611 8.28945 9.42522 8.75829 8.95638C9.22713 8.48754 9.86301 8.22415 10.5261 8.22415L10.5252 8.22498ZM14.9002 5.30832C14.6314 5.31908 14.3771 5.43344 14.1907 5.62746C14.0043 5.82148 13.9002 6.0801 13.9002 6.34915C13.9002 6.61821 14.0043 6.87682 14.1907 7.07084C14.3771 7.26486 14.6314 7.37922 14.9002 7.38998C15.1765 7.38998 15.4414 7.28024 15.6368 7.08489C15.8321 6.88954 15.9419 6.62458 15.9419 6.34832C15.9419 6.07205 15.8321 5.8071 15.6368 5.61175C15.4414 5.4164 15.1765 5.30665 14.9002 5.30665V5.30832Z" fill="#DE643B"/>
</svg>
