<svg width="21" height="21" viewBox="0 0 21 21" fill="none" xmlns="http://www.w3.org/2000/svg">
<path d="M17.9581 6.01709C15.3456 1.96709 9.99557 0.767094 5.85807 3.27959C1.82057 5.79209 0.52057 11.2671 3.13307 15.3046L3.34557 15.6296L2.47057 18.9046L5.74557 18.0296L6.07057 18.2421C7.48307 19.0046 9.02057 19.4421 10.5456 19.4421C12.1831 19.4421 13.8206 19.0046 15.2331 18.1296C19.2706 15.5046 20.4706 10.1421 17.9581 5.99209V6.01709ZM15.6706 14.4421C15.2331 15.0921 14.6831 15.5296 13.9206 15.6421C13.4831 15.6421 12.9331 15.8546 10.7581 14.9921C8.90807 14.1171 7.37057 12.6921 6.28307 11.0546C5.63307 10.2921 5.29557 9.30459 5.19557 8.31709C5.19557 7.44209 5.52057 6.67959 6.07057 6.12959C6.28307 5.91709 6.50807 5.80459 6.72057 5.80459H7.27057C7.48307 5.80459 7.70807 5.80459 7.82057 6.24209C8.03307 6.79209 8.58307 8.10459 8.58307 8.21709C8.69557 8.32959 8.64557 9.16709 8.14557 9.64209C7.87057 9.95459 7.82057 9.96709 7.93307 10.1921C8.37057 10.8421 8.92057 11.5046 9.45807 12.0546C10.1081 12.6046 10.7706 13.0421 11.5331 13.3671C11.7456 13.4796 11.9706 13.4796 12.0831 13.2546C12.1956 13.0421 12.7331 12.4921 12.9581 12.2671C13.1706 12.0546 13.2831 12.0546 13.5081 12.1546L15.2581 13.0296C15.4706 13.1421 15.6956 13.2421 15.8081 13.3546C15.9206 13.6796 15.9206 14.1171 15.6956 14.4421H15.6706Z" fill="#DE643B"/>
</svg>
