<svg width="9" height="176" viewBox="0 0 9 176" fill="none" xmlns="http://www.w3.org/2000/svg">
<path d="M5.93925 173.621C6.59925 173.561 7.19925 173.129 7.19925 172.013C7.19925 170.993 6.83925 170.609 6.28725 170.609C5.75925 170.609 5.49525 170.921 5.41125 171.521L5.21925 173.261C5.05125 174.701 4.23525 175.529 2.87925 175.529C1.37925 175.529 0.34725 174.401 0.34725 172.097C0.34725 169.637 1.52325 168.653 2.93925 168.545V170.633C2.30325 170.717 1.88325 171.197 1.88325 172.097C1.88325 172.913 2.20725 173.393 2.73525 173.393C3.14325 173.393 3.44325 173.153 3.51525 172.541L3.67125 171.017C3.83925 169.265 4.66725 168.473 6.10725 168.473C7.67925 168.473 8.73525 169.457 8.73525 172.049C8.73525 174.677 7.36725 175.589 5.93925 175.673V173.621ZM0.55125 161.537C0.55125 159.701 1.73925 158.969 3.19125 158.969C4.73925 158.969 5.92725 159.701 5.92725 161.537V163.865H8.53125V166.001H0.55125L0.55125 161.537ZM4.29525 163.865V162.245C4.29525 161.477 3.82725 161.177 3.20325 161.177C2.59125 161.177 2.17125 161.465 2.17125 162.221V163.865H4.29525ZM5.24325 154.491H6.86325V150.183H8.53125V156.603H0.55125L0.55125 150.219H2.21925L2.21925 154.491H3.69525L3.69525 150.579H5.24325V154.491ZM8.72325 143.822C8.72325 146.906 6.74325 148.058 4.54725 148.058C2.41125 148.058 0.34725 146.894 0.34725 143.81C0.34725 140.954 1.48725 139.826 3.77925 139.658V141.83C2.69925 141.926 2.07525 142.382 2.07525 143.774C2.07525 145.226 2.90325 145.85 4.54725 145.85C6.16725 145.85 7.00725 145.274 7.00725 143.834C7.00725 142.406 6.40725 141.89 5.24325 141.806L5.24325 139.61C7.69125 139.802 8.72325 140.894 8.72325 143.822ZM8.53125 137.624H6.86325V136.22H2.21925V137.624H0.55125L0.55125 132.704H2.21925V134.108H6.86325V132.704H8.53125L8.53125 137.624ZM8.53125 121.965V124.089L7.03125 124.605L7.03125 128.025L8.53125 128.553V130.665L0.55125 127.941L0.55125 124.689L8.53125 121.965ZM5.43525 127.485L5.43525 125.145L2.03925 126.321L5.43525 127.485ZM8.53125 119.836H0.55125L0.55125 117.7H6.86325V114.112H8.53125V119.836ZM8.53125 111.8H6.86325L6.86325 110.396H2.21925V111.8H0.55125L0.55125 106.88H2.21925V108.284H6.86325V106.88H8.53125V111.8ZM8.53125 104.541H6.86325L2.21925 100.101V104.421H0.55125L0.55125 97.3411H2.21925L6.86325 101.805V97.3051H8.53125L8.53125 104.541ZM5.24325 92.8373H6.86325V88.5293H8.53125V94.9493H0.55125L0.55125 88.5653H2.21925V92.8373H3.69525V88.9253H5.24325V92.8373ZM8.53125 85.939H0.55125L0.55125 81.907C0.55125 79.315 2.44725 78.127 4.52325 78.127C6.59925 78.127 8.53125 79.315 8.53125 81.907V85.939ZM6.86325 83.827L6.86325 82.387C6.86325 80.935 6.05925 80.335 4.52325 80.335C2.96325 80.335 2.21925 80.947 2.21925 82.387V83.827H6.86325ZM5.93925 69.3761C6.59925 69.3161 7.19925 68.8841 7.19925 67.7681C7.19925 66.7481 6.83925 66.3641 6.28725 66.3641C5.75925 66.3641 5.49525 66.6761 5.41125 67.2761L5.21925 69.0161C5.05125 70.4561 4.23525 71.2841 2.87925 71.2841C1.37925 71.2841 0.34725 70.1561 0.34725 67.8521C0.34725 65.3921 1.52325 64.4081 2.93925 64.3001L2.93925 66.3881C2.30325 66.4721 1.88325 66.9521 1.88325 67.8521C1.88325 68.6681 2.20725 69.1481 2.73525 69.1481C3.14325 69.1481 3.44325 68.9081 3.51525 68.2961L3.67125 66.7721C3.83925 65.0201 4.66725 64.2281 6.10725 64.2281C7.67925 64.2281 8.73525 65.2121 8.73525 67.8041C8.73525 70.4321 7.36725 71.3441 5.93925 71.4281V69.3761ZM5.24325 59.6437H6.86325V55.3357H8.53125V61.7557H0.55125L0.55125 55.3717H2.21925V59.6437H3.69525L3.69525 55.7317H5.24325V59.6437ZM7.09125 45.8574C7.73925 45.8574 8.07525 45.7854 8.53125 45.7014L8.53125 47.8374C8.20725 47.9334 7.75125 47.9814 7.09125 47.9814H6.76725C5.99925 47.9814 5.63925 48.4734 5.63925 49.1574V50.6094H8.53125V52.7454H0.55125L0.55125 48.3294C0.55125 46.5294 1.47525 45.6534 2.75925 45.6534C3.89925 45.6534 4.66725 46.3854 4.87125 47.3814C5.05125 46.5534 5.47125 45.8574 6.64725 45.8574H7.09125ZM4.12725 50.6094L4.12725 48.8934C4.12725 48.1614 3.79125 47.8614 3.10725 47.8614C2.48325 47.8614 2.17125 48.1734 2.17125 48.8814V50.6094H4.12725ZM8.53125 41.3435L0.55125 43.9355L0.55125 41.7635L5.57925 40.1195C5.99925 39.9875 6.41925 39.8675 6.83925 39.7595C6.41925 39.6635 5.99925 39.5435 5.57925 39.4115L0.55125 37.7675L0.55125 35.6435L8.53125 38.2355V41.3435ZM8.53125 33.742H6.86325V32.338H2.21925V33.742H0.55125L0.55125 28.822H2.21925V30.226H6.86325V28.822H8.53125V33.742ZM8.72325 22.5521C8.72325 25.6361 6.74325 26.7881 4.54725 26.7881C2.41125 26.7881 0.34725 25.6241 0.34725 22.5401C0.34725 19.6841 1.48725 18.5561 3.77925 18.3881V20.5601C2.69925 20.6561 2.07525 21.1121 2.07525 22.5041C2.07525 23.9561 2.90325 24.5801 4.54725 24.5801C6.16725 24.5801 7.00725 24.0041 7.00725 22.5641C7.00725 21.1361 6.40725 20.6201 5.24325 20.5361V18.3401C7.69125 18.5321 8.72325 19.6241 8.72325 22.5521ZM5.24325 13.8655H6.86325L6.86325 9.55755H8.53125V15.9775H0.55125L0.55125 9.59355H2.21925L2.21925 13.8655H3.69525L3.69525 9.95355H5.24325V13.8655ZM5.93925 5.26098C6.59925 5.20098 7.19925 4.76898 7.19925 3.65298C7.19925 2.63298 6.83925 2.24898 6.28725 2.24898C5.75925 2.24898 5.49525 2.56098 5.41125 3.16098L5.21925 4.90098C5.05125 6.34098 4.23525 7.16898 2.87925 7.16898C1.37925 7.16898 0.34725 6.04098 0.34725 3.73698C0.34725 1.27698 1.52325 0.292984 2.93925 0.184984V2.27298C2.30325 2.35698 1.88325 2.83698 1.88325 3.73698C1.88325 4.55298 2.20725 5.03298 2.73525 5.03298C3.14325 5.03298 3.44325 4.79298 3.51525 4.18098L3.67125 2.65698C3.83925 0.904984 4.66725 0.112984 6.10725 0.112984C7.67925 0.112984 8.73525 1.09698 8.73525 3.68898C8.73525 6.31698 7.36725 7.22898 5.93925 7.31298V5.26098Z" fill="#2D1D38"/>
</svg>
