<svg width="10" height="9" viewBox="0 0 10 9" fill="none" xmlns="http://www.w3.org/2000/svg">
<path d="M7.33832 8.50916C7.27461 8.50941 7.21244 8.48965 7.16067 8.45272L4.72742 6.69847L2.29416 8.45272C2.24218 8.49021 2.17955 8.51029 2.11533 8.51006C2.05111 8.50983 1.98863 8.48929 1.93692 8.45142C1.88521 8.41356 1.84695 8.36031 1.82768 8.2994C1.8084 8.23848 1.8091 8.17305 1.82968 8.11255L2.77869 5.31732L0.319142 3.64003C0.265866 3.60373 0.225657 3.55145 0.204389 3.49082C0.183121 3.43019 0.181909 3.36438 0.200929 3.30301C0.21995 3.24164 0.258207 3.18793 0.31011 3.14972C0.362013 3.11152 0.424843 3.09082 0.489419 3.09065H3.52375L4.43946 0.288263C4.45918 0.227761 4.49767 0.175026 4.54941 0.137625C4.60114 0.100224 4.66346 0.0800781 4.72742 0.0800781C4.79137 0.0800781 4.85369 0.100224 4.90542 0.137625C4.95716 0.175026 4.99565 0.227761 5.01537 0.288263L5.93108 3.09159H8.96541C9.03007 3.09156 9.09304 3.11211 9.14509 3.15025C9.19715 3.18838 9.23556 3.24209 9.2547 3.3035C9.27385 3.36492 9.27271 3.43081 9.25146 3.49154C9.23022 3.55226 9.18997 3.60463 9.13663 3.64097L6.67614 5.31732L7.62458 8.1118C7.63994 8.15704 7.64427 8.20527 7.63719 8.25251C7.63011 8.29974 7.61183 8.34462 7.58386 8.38344C7.5559 8.42226 7.51905 8.45391 7.47635 8.47577C7.43366 8.49763 7.38634 8.50907 7.33832 8.50916Z" fill="#F8F4F7"/>
</svg>
