<svg width="159" height="25" viewBox="0 0 159 25" fill="none" xmlns="http://www.w3.org/2000/svg">
<path d="M105.152 4.34814C100.651 4.34814 97.4929 7.92619 97.4929 12.4849C97.4929 17.0436 100.677 20.6482 105.231 20.6482C109.731 20.6482 112.889 17.0701 112.889 12.5114C112.863 7.9527 109.678 4.34814 105.152 4.34814ZM105.152 24.3323C98.1772 24.3323 93.3082 19.1109 93.3082 12.5114C93.3082 5.93839 98.2298 0.664062 105.231 0.664062C112.205 0.664062 117.1 5.88538 117.1 12.4849C117.074 19.0579 112.126 24.3323 105.152 24.3323ZM31.2751 4.34814C26.7746 4.34814 23.6427 7.92619 23.6427 12.4849C23.6427 17.0436 26.8273 20.6482 31.3277 20.6482C35.8282 20.6482 38.9865 17.0701 38.9865 12.5114C38.9865 7.9527 35.8019 4.34814 31.2751 4.34814ZM31.2751 24.3323C24.3007 24.3323 19.4054 19.1109 19.4054 12.5114C19.4054 5.93839 24.327 0.664062 31.3277 0.664062C38.3022 0.664062 43.1975 5.88538 43.1975 12.4849C43.1975 19.0579 38.2759 24.3323 31.2751 24.3323ZM54.7777 23.9347L48.6191 7.52863V23.9347H44.6713V1.06162H50.3561L55.9094 15.7714L61.4363 1.06162H67.0948V23.9347H63.0944V7.50213L56.9095 23.9347H54.7777ZM146.761 4.71919H142.287V20.2771H146.761C151.578 20.2771 154.657 17.1231 154.657 12.5379C154.657 8.00571 151.683 4.71919 146.761 4.71919ZM146.761 23.9347H138.287V1.03512H146.814C154.131 1.03512 158.842 5.83237 158.842 12.4584C158.842 18.9254 154.21 23.9347 146.761 23.9347ZM127.812 4.71919H122.522V11.4512H127.838C130.918 11.4512 132.655 10.126 132.655 7.9792C132.681 5.46131 130.786 4.71919 127.812 4.71919ZM133.155 23.9347L127.522 15.0823H122.522V23.9082H118.548V1.00862H128.602C133.892 1.00862 136.76 3.52651 136.76 7.79367C136.76 11.6898 134.576 13.6776 131.786 14.3402L137.839 23.8817L133.155 23.9347ZM92.9397 4.71919H80.0173V11.4512H91.9396V15.1088H80.0173V23.9347H76.0168V1.03512H92.9397V4.71919ZM12.6941 23.9347H8.66738V4.71919H0.929688V1.03512H20.3529V4.71919H12.6941V23.9347Z" fill="black"/>
</svg>
