<svg width="106" height="25" viewBox="0 0 106 25" fill="none" xmlns="http://www.w3.org/2000/svg">
<g clip-path="url(#clip0_3900_3596)">
<path d="M33.2279 21.8401L30.8801 19.3711H29.6309V24.1071H31.141V21.4488L33.1985 23.747L35.2762 21.4488V24.1071H36.7864V19.3711H35.5371L33.2279 21.8401Z" fill="#DE643B"/>
<path d="M38.8828 20.2235V20.5597V24.1071H45.6984V19.3711H38.8828V20.2235ZM44.0892 22.9185H40.4921V20.5597H44.0892V22.9185Z" fill="#DE643B"/>
<path d="M51.5082 22.5896L49.4708 19.3711H47.7422L50.8303 24.1071H52.1383L55.2154 19.3711H53.4978L51.5082 22.5896Z" fill="#DE643B"/>
<path d="M58.9655 19.3711H57.3672V24.1071H58.9655V19.3711Z" fill="#DE643B"/>
<path d="M66.0458 22.1396L62.1881 19.3711H61.0195V24.1071H62.4984V21.3294L66.3561 24.1071H67.5247V19.3711H66.0458V22.1396Z" fill="#DE643B"/>
<path d="M72.527 22.1322H74.445V22.9185H71.1292V20.5597H74.5572L75.955 19.3711H69.6191V24.1071H75.955V21.3459H72.527V22.1322Z" fill="#DE643B"/>
<path d="M21.6808 8.75514L22.1383 7.57573H27.7157L28.366 5.90397L22.7813 5.91866L23.2405 4.74109H34.3677L35.9899 0.580078H20.3783L15.6074 12.918H31.1915L32.8099 8.75514H21.6808Z" fill="#DE643B"/>
<path d="M13.5928 0.580078L10.4587 8.69819L5.03559 0.59295H0.00195312L8.24864 12.918H13.2768L18.0734 0.580078H13.5928Z" fill="#DE643B"/>
<path d="M56.2109 0.580078L54.6016 4.74293H58.9792L55.8159 12.9033H60.2653L63.4365 4.74293H67.8009L69.4102 0.580078H56.2109Z" fill="#DE643B"/>
<path d="M48.3564 4.74109L52.2933 4.71905L53.9062 0.580078H38.2983L33.5273 12.918H49.1077L50.7262 8.75514H39.5989L41.1587 4.74109H48.3564Z" fill="#DE643B"/>
<path d="M87.3217 0.580078H71.7303L66.9609 12.918H82.5288L87.3217 0.580078ZM79.7014 8.75696H73.0329L74.5923 4.74477H81.2609L79.7014 8.75696Z" fill="#DE643B"/>
<path d="M104.202 4.74293L105.808 0.585595L89.6268 0.580078L84.8574 12.918H89.3123L90.9552 8.68713L97.8883 12.918H104.751L96.45 7.85311L104.202 4.74293ZM92.4853 4.74293H98.5643L91.3643 7.62904L92.4853 4.74293Z" fill="#DE643B"/>
</g>
<defs>
<clipPath id="clip0_3900_3596">
<rect width="105.804" height="24.6875" fill="white"/>
</clipPath>
</defs>
</svg>
