<svg width="178" height="45" viewBox="0 0 178 45" fill="none" xmlns="http://www.w3.org/2000/svg">
<g clip-path="url(#clip0_5342_8088)">
<path fill-rule="evenodd" clip-rule="evenodd" d="M99.3024 28.347C99.3024 28.6844 99.2465 29.078 99.1905 29.3592C98.687 30.8214 97.3442 31.7774 95.7775 31.7774C94.3788 31.7774 93.3157 30.9901 93.3157 29.303C93.3157 26.7161 96.1132 26.0413 99.3584 26.0413V28.347H99.3024ZM104.338 23.8481C104.338 19.6304 102.548 15.8626 96.4489 15.8626C93.3157 15.8626 90.7979 16.7624 89.4551 17.5497L90.4622 20.9801C92.0289 20.0803 93.7633 19.5742 95.5537 19.5179C98.687 19.5179 99.1905 21.2613 99.1905 22.386V22.6671C92.4205 22.6671 88.1683 25.0291 88.1683 29.8091C88.1683 32.7334 90.3503 35.4889 94.155 35.4889C96.449 35.4889 98.4072 34.5892 99.5822 33.0708H99.6941C99.6941 33.0708 100.477 36.3325 104.73 35.0953C104.506 33.7456 104.394 32.2835 104.394 30.5964V23.8481H104.338ZM0.941406 10.0703L6.08885 31.215C6.92811 34.6454 8.38283 35.9388 12.6351 35.0953L15.3766 23.8481C16.048 21.0363 16.5516 19.0681 16.9992 16.2H17.0552C17.3909 19.0681 17.8385 21.0363 18.398 23.8481L20.0765 31.6649C20.6919 34.3642 22.2586 36.0513 26.4548 35.0953L33.0011 10.1265H27.6858L25.4477 20.9238C24.8323 24.073 24.2728 26.5474 23.8811 29.4155C23.4895 26.5474 22.9859 24.1855 22.3705 21.1488L20.0765 10.1265H14.5374L12.0196 20.8676C11.3482 24.1293 10.6768 26.7724 10.2292 29.5279H10.1732C9.72564 26.9411 9.16613 23.6232 8.55068 20.474L6.53646 10.0703H0.941406ZM42.7364 28.347C42.7364 28.6844 42.7364 29.078 42.6245 29.3592C42.121 30.8214 40.7782 31.7774 39.2116 31.7774C37.8128 31.7774 36.7497 30.9901 36.7497 29.303C36.7497 26.7161 39.5473 26.0413 42.7924 26.0413V28.347H42.7364ZM47.8279 23.8481C47.8279 19.6304 46.0375 15.8626 39.9389 15.8626C36.8057 15.8626 34.2879 16.7624 32.9451 17.5497L33.9522 20.9801C35.5188 20.0803 37.2533 19.5742 39.0437 19.5179C42.1769 19.5179 42.6805 21.2613 42.6805 22.386V22.6671C35.9105 22.6671 31.6582 25.0291 31.6582 29.8091C31.6582 32.7334 33.8403 35.4889 37.6449 35.4889C39.9389 35.4889 41.8972 34.5892 43.0722 33.0708H43.1841C43.1841 33.0708 43.9674 36.3325 48.2196 35.0953C47.9958 33.7456 47.8839 32.2835 47.8839 30.5964V23.8481H47.8279ZM55.6051 29.7529V10.0703H50.5695V35.039H55.6051V29.7529ZM119.836 10.1265V28.5157C119.836 31.0463 120.284 32.8458 121.347 33.9143C122.242 34.8703 123.697 35.4889 125.431 35.4889C126.942 35.4889 128.397 35.2078 129.068 34.9266L129.012 30.9338C128.509 31.1025 127.893 31.1588 127.11 31.1588C125.375 31.1588 124.816 30.0903 124.816 27.7846V20.8114H129.236V16.0313H124.816V10.0703L119.836 10.1265ZM106.8 16.3125V35.0953H112.003V25.4789C112.003 24.9728 112.059 24.5229 112.115 24.073C112.507 22.0486 114.017 20.7551 116.255 20.7551C116.871 20.7551 117.263 20.8114 117.766 20.8676V15.9188C117.374 15.8626 116.983 15.8064 116.647 15.8064C114.689 15.8064 112.507 17.0436 111.556 19.7991H111.444V16.2563L106.8 16.3125ZM58.5704 16.3125V35.0953H63.606V24.073C63.606 23.5669 63.6619 23.0046 63.8298 22.5547C64.2214 21.43 65.2845 20.1365 66.9071 20.1365C68.9772 20.1365 69.9284 21.8798 69.9284 24.3542V35.039H75.0199V23.9043C75.0199 23.3982 75.0759 22.7796 75.2437 22.386C75.6354 21.0363 76.9222 20.0803 78.321 20.0803C80.3912 20.0803 81.3983 21.7674 81.3983 24.7479V35.039H86.4898V24.0168C86.4898 18.2245 83.5244 15.8626 80.2233 15.8626C78.7126 15.8626 77.5936 16.2563 76.5306 16.8749C75.6354 17.4372 74.852 18.2245 74.1806 19.2368H74.1247C73.2854 17.156 71.2153 15.8064 68.9772 15.8626C66.7392 15.7501 64.6131 16.8749 63.55 18.8431H63.4941V16.3125H58.5704Z" fill="black"/>
<path fill-rule="evenodd" clip-rule="evenodd" d="M156.481 15.4698C157.488 15.4698 158.327 14.9074 158.439 14.2888L159.39 2.98543C159.39 1.86071 158.103 0.960938 156.481 0.960938C154.858 0.960938 153.571 1.86071 153.571 2.98543L154.579 14.2888C154.634 14.9637 155.474 15.4698 156.481 15.4698ZM150.382 19.0127C150.886 18.1129 150.83 17.1569 150.326 16.707L141.094 10.2399C140.143 9.6775 138.689 10.3523 137.905 11.7582C137.066 13.1641 137.234 14.795 138.185 15.3011L148.424 20.0811C149.039 20.3061 149.935 19.8562 150.382 19.0127ZM162.523 18.9564C163.027 19.8562 163.866 20.3061 164.538 20.0249L174.721 15.2449C175.672 14.6825 175.84 13.1079 175 11.702C174.161 10.2961 172.762 9.62126 171.811 10.1836L162.579 16.707C162.076 17.1569 162.02 18.1129 162.523 18.9564ZM156.481 29.5288C157.488 29.5288 158.327 30.0911 158.439 30.7097L159.39 42.0131C159.39 43.1378 158.103 44.0376 156.481 44.0376C154.858 44.0376 153.571 43.1378 153.571 42.0131L154.579 30.7097C154.634 30.0349 155.474 29.5288 156.481 29.5288ZM162.523 26.0421C163.027 25.1424 163.866 24.6925 164.538 24.9174L174.721 29.6975C175.672 30.2598 175.84 31.8344 175 33.2403C174.161 34.6462 172.762 35.3211 171.811 34.7587L162.579 28.2916C162.076 27.8979 162.02 26.8857 162.523 26.0421ZM150.382 26.0421C150.886 26.8857 150.83 27.8979 150.326 28.3478L141.094 34.8149C140.143 35.3773 138.689 34.7025 137.905 33.2966C137.066 31.8907 137.234 30.3161 138.185 29.7537L148.424 24.9737C149.039 24.6925 149.935 25.1424 150.382 26.0421ZM176.903 33.8027H177.015C177.127 33.8027 177.238 33.7465 177.238 33.6902C177.238 33.5777 177.183 33.5777 177.071 33.5777H176.959V33.8027H176.903ZM176.903 34.3088H176.679V33.409H177.015C177.183 33.409 177.238 33.409 177.35 33.4653C177.406 33.5215 177.462 33.5777 177.462 33.634C177.462 33.7465 177.406 33.8027 177.294 33.8589C177.406 33.9152 177.462 33.9714 177.462 34.0839C177.462 34.2526 177.518 34.2526 177.518 34.3088H177.294C177.238 34.2526 177.238 34.1963 177.238 34.0839C177.238 33.9714 177.183 33.9714 177.071 33.9714H176.959L176.903 34.3088ZM177.015 33.1279C176.623 33.1279 176.343 33.4653 176.343 33.8589C176.343 34.2526 176.623 34.59 177.015 34.59C177.406 34.59 177.686 34.2526 177.686 33.8589C177.742 33.4653 177.406 33.1279 177.015 33.1279ZM177.015 32.9592C177.518 32.9592 177.91 33.3528 177.91 33.8589C177.91 34.3651 177.518 34.7587 177.015 34.7587C176.511 34.7587 176.064 34.3651 176.064 33.8589C176.119 33.3528 176.511 32.9592 177.015 32.9592Z" fill="black"/>
</g>
<defs>
<clipPath id="clip0_5342_8088">
<rect width="177.027" height="43.0767" fill="white" transform="translate(0.933594 0.960938)"/>
</clipPath>
</defs>
</svg>
