<svg width="21" height="21" viewBox="0 0 21 21" fill="none" xmlns="http://www.w3.org/2000/svg">
<path d="M17.8721 5.79834C15.2596 1.74834 9.90963 0.548344 5.77213 3.06084C1.73463 5.57334 0.434633 11.0483 3.04713 15.0858L3.25963 15.4108L2.38463 18.6858L5.65963 17.8108L5.98463 18.0233C7.39713 18.7858 8.93463 19.2233 10.4596 19.2233C12.0971 19.2233 13.7346 18.7858 15.1471 17.9108C19.1846 15.2858 20.3846 9.92334 17.8721 5.77334V5.79834ZM15.5846 14.2233C15.1471 14.8733 14.5971 15.3108 13.8346 15.4233C13.3971 15.4233 12.8471 15.6358 10.6721 14.7733C8.82213 13.8983 7.28463 12.4733 6.19713 10.8358C5.54713 10.0733 5.20963 9.08584 5.10963 8.09834C5.10963 7.22334 5.43463 6.46084 5.98463 5.91084C6.19713 5.69834 6.42213 5.58584 6.63463 5.58584H7.18463C7.39713 5.58584 7.62213 5.58584 7.73463 6.02334C7.94713 6.57334 8.49713 7.88584 8.49713 7.99834C8.60963 8.11084 8.55963 8.94834 8.05963 9.42334C7.78463 9.73584 7.73463 9.74834 7.84713 9.97334C8.28463 10.6233 8.83463 11.2858 9.37213 11.8358C10.0221 12.3858 10.6846 12.8233 11.4471 13.1483C11.6596 13.2608 11.8846 13.2608 11.9971 13.0358C12.1096 12.8233 12.6471 12.2733 12.8721 12.0483C13.0846 11.8358 13.1971 11.8358 13.4221 11.9358L15.1721 12.8108C15.3846 12.9233 15.6096 13.0233 15.7221 13.1358C15.8346 13.4608 15.8346 13.8983 15.6096 14.2233H15.5846Z" fill="white"/>
</svg>
